<?xml version="1.0" encoding="utf-8"?>
<!-- Generator: Adobe Illustrator 28.3.0, SVG Export Plug-In . SVG Version: 6.00 Build 0)  -->
<svg version="1.1" xmlns="http://www.w3.org/2000/svg" xmlns:xlink="http://www.w3.org/1999/xlink" x="0px" y="0px"
	 viewBox="0 0 1400 765.6" style="enable-background:new 0 0 1400 765.6;" xml:space="preserve">
<style type="text/css">
	.st0{fill:url(#SVGID_1_);}
	.st1{fill:#9B8579;}
	.st2{opacity:0.28;fill:url(#SVGID_00000151502869934981925910000002039803996293471130_);}
	.st3{opacity:0.21;fill:url(#SVGID_00000129904378217406789960000007808751615728256146_);}
	.st4{opacity:0.21;fill:url(#SVGID_00000133525238650331147640000014970773578510090386_);}
	.st5{opacity:0.28;fill:url(#SVGID_00000108301175148527443990000013426225159871843216_);}
	.st6{opacity:0.28;fill:url(#SVGID_00000111894350370873634120000007101384643701651371_);}
	.st7{opacity:0.2;}
	.st8{fill:#8A3C33;}
	.st9{fill:#F7836C;}
	.st10{fill:#F7BE8F;}
	.st11{fill:#FFFFFF;}
	.st12{fill:#FBD5A2;}
	.st13{fill:#B8B4B2;}
	.st14{fill:#5999A2;}
	.st15{fill:#A29F9D;}
	.st16{fill:#FEEDC5;}
	.st17{fill:#5C2A21;}
	.st18{fill:#8A6763;}
	.st19{opacity:0.26;}
	.st20{opacity:0.54;fill:#FEEDC5;}
	.st21{fill:url(#SVGID_00000137097308527428664260000016160977452679727272_);}
	.st22{fill:url(#SVGID_00000065795284563847205850000013870339334307496094_);}
	.st23{fill:url(#SVGID_00000140704905678665131750000004708776130835937718_);}
	.st24{fill:url(#SVGID_00000127741903617409962740000011217981474430566544_);}
	.st25{fill:url(#SVGID_00000021834403088880445630000006133345204961794227_);}
	.st26{fill:url(#SVGID_00000181796643437560093370000010800946023064374148_);}
	.st27{fill:url(#SVGID_00000134929144784230573210000017739142304204411024_);}
	.st28{fill:url(#SVGID_00000119800643154242448570000012531544282510780555_);}
	.st29{fill:#78783F;}
	.st30{fill:#B9E6E7;}
	.st31{opacity:0.23;}
	.st32{opacity:0.19;}
	.st33{fill:#FBBE76;}
	.st34{fill:#808182;}
	.st35{fill:#606061;}
	.st36{fill:#B2DAF2;}
	.st37{opacity:0.42;fill:url(#SVGID_00000088092946288453221780000018162985058081608119_);}
	.st38{fill:#C7C1C5;}
	.st39{fill:#2B2829;}
	.st40{fill:#423D3E;}
	.st41{fill:#9C979A;}
	.st42{opacity:0.16;}
	.st43{opacity:0.31;fill:url(#SVGID_00000079454465224713563840000012146930172267994544_);}
</style>
<g id="Layer_3">
	<linearGradient id="SVGID_1_" gradientUnits="userSpaceOnUse" x1="700" y1="763.6089" x2="700" y2="570.9218">
		<stop  offset="0" style="stop-color:#91AFCF"/>
		<stop  offset="1" style="stop-color:#756B6B"/>
	</linearGradient>
	<rect x="0" y="487.9" class="st0" width="1400" height="277.8"/>
	<rect x="0" y="0" class="st1" width="1400" height="161.2"/>
</g>
<g id="Layer_10">
	
		<linearGradient id="SVGID_00000166646301263292875200000004140322760686510248_" gradientUnits="userSpaceOnUse" x1="620.3904" y1="498.8723" x2="620.3904" y2="649.5709">
		<stop  offset="0" style="stop-color:#FFFFFF"/>
		<stop  offset="1" style="stop-color:#000000"/>
	</linearGradient>
	
		<rect x="578.7" y="512.4" style="opacity:0.28;fill:url(#SVGID_00000166646301263292875200000004140322760686510248_);" width="83.3" height="141"/>
	
		<linearGradient id="SVGID_00000128475910593892442710000001461603232988390031_" gradientUnits="userSpaceOnUse" x1="1089.1902" y1="613.4705" x2="1089.1902" y2="761.8553">
		<stop  offset="0" style="stop-color:#FFFFFF"/>
		<stop  offset="1" style="stop-color:#000000"/>
	</linearGradient>
	
		<rect x="778.4" y="626.8" style="opacity:0.21;fill:url(#SVGID_00000128475910593892442710000001461603232988390031_);" width="621.6" height="138.9"/>
	
		<linearGradient id="SVGID_00000137130842860670317350000004139540620853936810_" gradientUnits="userSpaceOnUse" x1="176.9385" y1="613.4705" x2="176.9385" y2="761.8553">
		<stop  offset="0" style="stop-color:#FFFFFF"/>
		<stop  offset="1" style="stop-color:#000000"/>
	</linearGradient>
	
		<rect x="0" y="626.8" style="opacity:0.21;fill:url(#SVGID_00000137130842860670317350000004139540620853936810_);" width="353.9" height="138.9"/>
	
		<linearGradient id="SVGID_00000034065907800014576460000002040808936556083880_" gradientUnits="userSpaceOnUse" x1="464.0197" y1="498.8723" x2="464.0197" y2="649.5709">
		<stop  offset="0" style="stop-color:#FFFFFF"/>
		<stop  offset="1" style="stop-color:#000000"/>
	</linearGradient>
	
		<rect x="422.3" y="512.4" style="opacity:0.28;fill:url(#SVGID_00000034065907800014576460000002040808936556083880_);" width="83.3" height="141"/>
	
		<linearGradient id="SVGID_00000176727435859895208090000005756409230514727095_" gradientUnits="userSpaceOnUse" x1="695.6462" y1="498.8723" x2="695.6462" y2="649.5709">
		<stop  offset="0" style="stop-color:#FFFFFF"/>
		<stop  offset="1" style="stop-color:#000000"/>
	</linearGradient>
	
		<rect x="683" y="512.4" style="opacity:0.28;fill:url(#SVGID_00000176727435859895208090000005756409230514727095_);" width="25.3" height="141"/>
</g>
<g id="Layer_9">
	<g class="st7">
		<polygon class="st8" points="850.2,551.1 773.5,549 773.5,608.9 850.2,616.1 		"/>
		<polygon class="st8" points="367.2,543 283.3,547 283.3,618.5 367.2,606.1 		"/>
		
			<rect x="681.8" y="562.3" transform="matrix(-1.836970e-16 1 -1 -1.836970e-16 1275.9098 -106.4976)" class="st8" width="18.8" height="44.7"/>
		
			<rect x="681.7" y="539.2" transform="matrix(6.123234e-17 -1 1 6.123234e-17 129.6026 1252.4429)" class="st8" width="18.7" height="44.4"/>
		
			<rect x="682.3" y="583.4" transform="matrix(-1.836970e-16 1 -1 -1.836970e-16 1296.953 -85.5257)" class="st8" width="17.9" height="44.6"/>
		
			<rect x="443.3" y="561.9" transform="matrix(-1.836970e-16 1 -1 -1.836970e-16 1037.0051 131.5077)" class="st8" width="18.8" height="44.7"/>
		
			<rect x="443.2" y="538.8" transform="matrix(6.123234e-17 -1 1 6.123234e-17 -108.4027 1013.5383)" class="st8" width="18.7" height="44.4"/>
		
			<rect x="443.8" y="582.9" transform="matrix(-1.836970e-16 1 -1 -1.836970e-16 1058.0485 152.4796)" class="st9" width="17.9" height="44.6"/>
		<g>
			<polygon class="st8" points="845.9,552.3 769.1,550.2 769.1,610.2 845.9,617.4 			"/>
			<polygon class="st10" points="840,555 774.2,553.1 774.2,608 840,613.9 			"/>
			<polygon class="st11" points="830.4,558.4 782.7,556.8 782.7,604.3 830.4,608.4 			"/>
			<polygon class="st11" points="830.4,558.4 782.7,556.8 782.7,604.3 830.4,608.4 			"/>
			<polygon class="st8" points="823.5,563.1 789,561.8 789,601 823.5,603.8 			"/>
		</g>
		<g>
			<polygon class="st9" points="364.4,544.5 280.5,548.6 280.5,620.1 364.4,607.6 			"/>
			<polygon class="st8" points="359.5,548 286.6,551.8 286.6,615.6 359.5,605.1 			"/>
			<polygon class="st11" points="351.1,552.6 296.6,555.8 296.6,608.4 351.1,601 			"/>
			<polygon class="st9" points="357.2,549.2 289.2,552.9 289.2,613.9 357.2,604.3 			"/>
			<polygon class="st11" points="352.2,553.7 295.1,557.2 295.1,608.5 352.2,600.7 			"/>
			<polygon class="st8" points="344,559.8 304.7,562.5 304.7,601.2 344,596.2 			"/>
			<path class="st10" d="M338.3,578.5c0-9.7-6-12-13.5-11.5c-7.7,0.6-14,4.1-14,14.2c0,10.1,6.3,13.9,14,12.9
				C332.3,593.2,338.3,588.2,338.3,578.5z"/>
		</g>
		<g>
			<rect x="500.8" y="538.2" class="st8" width="138.4" height="95.6"/>
			<rect x="496.9" y="540.2" class="st9" width="138.4" height="95.6"/>
			<rect x="506" y="544.5" class="st8" width="120.3" height="87"/>
			<rect x="521" y="550" class="st11" width="90.2" height="74.5"/>
			<rect x="521" y="550" class="st11" width="90.2" height="74.5"/>
			<rect x="532" y="557.4" class="st8" width="68.2" height="61.1"/>
			<path class="st10" d="M532,557.4V592h21.4c7,0,12.7-2.7,12.7-6.1l0,0c0-3.3,5.7-6.1,12.7-6.1h21.4v-22.5H532z"/>
		</g>
		<g>
			<g>
				
					<rect x="441.5" y="562.9" transform="matrix(-1.836970e-16 1 -1 -1.836970e-16 1036.1738 134.3473)" class="st8" width="18.8" height="44.7"/>
				
					<rect x="443.7" y="568.1" transform="matrix(-1.836970e-16 1 -1 -1.836970e-16 1036.1738 134.3474)" class="st11" width="14.4" height="34.3"/>
			</g>
			<g>
				
					<rect x="441.4" y="539.8" transform="matrix(6.123234e-17 -1 1 6.123234e-17 -111.2424 1012.707)" class="st8" width="18.7" height="44.4"/>
				
					<rect x="442.7" y="542.5" transform="matrix(6.123234e-17 -1 1 6.123234e-17 -111.2424 1012.707)" class="st10" width="16" height="38.9"/>
				
					<rect x="444.4" y="546.5" transform="matrix(6.123234e-17 -1 1 6.123234e-17 -111.7224 1012.2269)" class="st11" width="11.6" height="30.9"/>
				
					<rect x="446.5" y="550.8" transform="matrix(6.123234e-17 -1 1 6.123234e-17 -111.2958 1012.6536)" class="st8" width="8.4" height="22.4"/>
			</g>
			<g>
				
					<rect x="442" y="583.9" transform="matrix(-1.836970e-16 1 -1 -1.836970e-16 1057.2172 155.3192)" class="st9" width="17.9" height="44.6"/>
				
					<rect x="443.2" y="586.4" transform="matrix(-1.836970e-16 1 -1 -1.836970e-16 1057.2172 155.3192)" class="st8" width="15.5" height="39.8"/>
				
					<rect x="445.6" y="589.9" transform="matrix(-1.836970e-16 1 -1 -1.836970e-16 1057.6415 154.8949)" class="st11" width="11.6" height="32.8"/>
				
					<rect x="445.6" y="589.9" transform="matrix(-1.836970e-16 1 -1 -1.836970e-16 1057.6415 154.8949)" class="st10" width="11.6" height="32.8"/>
			</g>
		</g>
		<g>
			<g>
				
					<rect x="679.2" y="563.1" transform="matrix(-1.836970e-16 1 -1 -1.836970e-16 1274.0085 -103.1535)" class="st10" width="18.8" height="44.7"/>
				
					<rect x="681.4" y="568.3" transform="matrix(-1.836970e-16 1 -1 -1.836970e-16 1274.0085 -103.1534)" class="st8" width="14.4" height="34.3"/>
				
					<rect x="684.4" y="573.7" transform="matrix(-1.836970e-16 1 -1 -1.836970e-16 1274.403 -103.5479)" class="st9" width="9.2" height="23.5"/>
			</g>
			<g>
				
					<rect x="679.1" y="540" transform="matrix(6.123234e-17 -1 1 6.123234e-17 126.2584 1250.5416)" class="st8" width="18.7" height="44.4"/>
				
					<rect x="680.4" y="542.7" transform="matrix(6.123234e-17 -1 1 6.123234e-17 126.2584 1250.5416)" class="st10" width="16" height="38.9"/>
				
					<rect x="682.6" y="547.9" transform="matrix(6.123234e-17 -1 1 6.123234e-17 125.7784 1250.0616)" class="st11" width="10.7" height="28.5"/>
			</g>
			<g>
				
					<rect x="679.7" y="584.1" transform="matrix(-1.836970e-16 1 -1 -1.836970e-16 1295.0518 -82.1816)" class="st9" width="17.9" height="44.6"/>
				
					<rect x="681.8" y="589" transform="matrix(-1.836970e-16 1 -1 -1.836970e-16 1295.0518 -82.1816)" class="st8" width="13.6" height="34.9"/>
			</g>
		</g>
	</g>
</g>
<g id="Layer_2">
	<path class="st12" d="M434.9,50.8c0,0,262.5,0,262.5,0c0,0,99.8-29.7,170.6-50.8H204.1L434.9,50.8z"/>
	<polygon class="st13" points="94.5,142.2 399.4,199.8 399.4,481.9 94.5,518.5 	"/>
	<polygon class="st14" points="94.5,142.2 0,71.6 0,525.5 94.5,518.5 	"/>
	<polygon class="st13" points="1037.7,142.2 732.9,199.8 732.9,481.9 1037.7,518.5 	"/>
	<polygon class="st14" points="1228.2,0 1037.7,142.2 1037.7,518.5 1400,544 1400,0 	"/>
	<rect x="399.4" y="199.8" class="st15" width="333.5" height="282.1"/>
	<rect x="399.4" y="481.9" class="st12" width="333.5" height="35.4"/>
	<rect x="399.4" y="142.2" class="st12" width="333.5" height="57.6"/>
	<polygon class="st16" points="399.4,142.2 94.5,65.1 94.5,142.2 399.4,199.8 	"/>
	<polygon class="st10" points="94.5,65.1 34.8,0 0,0 0,71.6 94.5,142.2 	"/>
	<rect x="399.4" y="199.8" class="st8" width="333.5" height="3.7"/>
	<rect x="399.4" y="159.5" class="st8" width="333.5" height="3.7"/>
	<polygon class="st8" points="399.4,199.8 94.5,142.2 94.5,147.5 399.4,203.4 	"/>
	<polygon class="st8" points="399.4,159.5 94.5,82.4 94.5,90.8 399.4,163.2 	"/>
	<polygon class="st8" points="94.5,142.2 0,71.6 0,92.5 94.5,147.5 	"/>
	<rect x="399.4" y="211.3" class="st8" width="333.5" height="2.6"/>
	<rect x="399.4" y="169.6" class="st8" width="333.5" height="11.3"/>
	<polygon class="st8" points="399.4,169.6 399.4,180.9 94.5,116.8 94.5,98.1 	"/>
	<rect x="399.4" y="487.3" class="st8" width="333.5" height="2.6"/>
	<polygon class="st10" points="1037.7,527.8 732.9,517.3 732.9,481.9 1037.7,492.4 	"/>
	<polygon class="st8" points="1037.7,497.8 1037.7,500.4 732.9,489.9 732.9,487.3 	"/>
	<polygon class="st16" points="1037.7,492.4 1037.7,527.8 1400,558.4 1400,514.8 	"/>
	<polygon class="st8" points="1037.7,497.8 1037.7,500.4 1400,522.9 1400,520.3 	"/>
	<polygon class="st10" points="94.5,527.8 399.4,517.3 399.4,481.9 94.5,492.4 	"/>
	<polygon class="st8" points="94.5,497.8 94.5,500.4 399.4,489.9 399.4,487.3 	"/>
	<polygon class="st16" points="94.5,492.4 0,498.6 0,536.3 94.5,527.8 	"/>
	<polygon class="st8" points="94.5,497.8 0,504 0,506.6 94.5,500.4 	"/>
	<rect x="399.4" y="516.7" class="st17" width="333.5" height="2.6"/>
	<polygon class="st8" points="1037.7,527.2 1037.7,529.8 732.9,519.3 732.9,516.7 	"/>
	<polygon class="st8" points="1037.7,527.2 1037.7,529.8 1400,560.4 1400,557.8 	"/>
	<polygon class="st17" points="94.5,527.2 94.5,529.8 399.4,519.3 399.4,516.7 	"/>
	<polygon class="st8" points="94.5,527.2 0,535.7 0,538.3 94.5,529.8 	"/>
	<rect x="399.4" y="218.7" class="st8" width="333.5" height="1.6"/>
	<polygon class="st8" points="399.4,211.3 94.5,159 94.5,163.2 399.4,213.9 	"/>
	<polygon class="st8" points="399.4,218.7 94.5,166.3 94.5,169.5 399.4,220.2 	"/>
	<polygon class="st8" points="94.5,159 0,104.1 0,109.8 94.5,163.2 	"/>
	<polygon class="st8" points="94.5,166.3 0,114.9 0,118.3 94.5,169.5 	"/>
	<polygon class="st8" points="94.5,90.8 94.5,82.4 12.1,0 0,0 	"/>
	<polygon class="st8" points="94.5,98.1 0,11.1 0,35.5 94.5,116.8 	"/>
	<polygon class="st11" points="94.5,136.8 0,64.3 0,71.6 94.5,142.2 	"/>
	<polygon class="st10" points="94.5,142.2 399.4,199.8 399.4,196.8 94.5,136.8 	"/>
	<g>
		<polygon class="st16" points="732.9,142.2 1037.7,65.1 1037.7,142.2 732.9,199.8 		"/>
		<polygon class="st10" points="1037.7,65.1 1037.7,142.2 1228.2,0 1097.5,0 		"/>
		<polygon class="st8" points="732.9,199.8 1037.7,142.2 1037.7,147.5 732.9,203.4 		"/>
		<polygon class="st8" points="732.9,159.5 1037.7,82.4 1037.7,90.8 732.9,163.2 		"/>
		<polygon class="st8" points="1037.7,142.2 1037.7,147.5 1242.2,0 1228.2,0 		"/>
		<polygon class="st8" points="732.9,169.6 732.9,180.9 1037.7,116.8 1037.7,98.1 		"/>
		<polygon class="st8" points="732.9,211.3 1037.7,159 1037.7,163.2 732.9,213.9 		"/>
		<polygon class="st8" points="732.9,218.7 1037.7,166.3 1037.7,169.5 732.9,220.2 		"/>
		<polygon class="st8" points="1037.7,159 1037.7,163.2 1343.6,0 1328,0 		"/>
		<polygon class="st8" points="1037.7,166.3 1037.7,169.5 1369.4,0 1361.5,0 		"/>
		<polygon class="st8" points="1037.7,82.4 1037.7,90.8 1132.3,0 1120.2,0 		"/>
		<polygon class="st8" points="1037.7,98.1 1037.7,116.8 1173.6,0 1144.3,0 		"/>
		<rect x="399.4" y="169.6" class="st8" width="333.5" height="11.3"/>
		<polygon class="st8" points="399.4,169.6 399.4,180.9 94.5,116.8 94.5,98.1 		"/>
		<polygon class="st8" points="94.5,98.1 0,11.1 0,35.5 94.5,116.8 		"/>
		<polygon class="st8" points="732.9,169.6 732.9,180.9 1037.7,116.8 1037.7,98.1 		"/>
		<polygon class="st8" points="1037.7,98.1 1037.7,116.8 1173.6,0 1144.3,0 		"/>
		<polygon class="st11" points="1037.7,136.8 1037.7,142.2 1228.2,0 1215.9,0 		"/>
		<polygon class="st10" points="1037.7,142.2 732.9,199.8 732.9,196.8 1037.7,136.8 		"/>
	</g>
	<rect x="399.4" y="196.8" class="st11" width="333.5" height="3"/>
	<g>
		<rect x="434.9" y="50.8" class="st8" width="262.5" height="11.3"/>
		<polygon class="st8" points="434.9,62.1 434.9,50.8 264.2,0 202.5,0 		"/>
		<polygon class="st8" points="697.4,50.8 697.4,62.1 929.7,0 868,0 		"/>
	</g>
	<g>
		<rect x="425.7" y="498.6" class="st18" width="56.4" height="8.5"/>
		<rect x="537.9" y="498.6" class="st18" width="56.4" height="8.5"/>
		<rect x="650.2" y="498.6" class="st18" width="56.4" height="8.5"/>
	</g>
	<g>
		<polygon class="st18" points="165.8,515.6 111.3,517.3 111.3,508.8 165.8,507 		"/>
		<polygon class="st18" points="274.2,512.1 219.7,513.9 219.7,505.3 274.2,503.6 		"/>
		<polygon class="st18" points="382.6,508.7 328.1,510.4 328.1,501.9 382.6,500.1 		"/>
	</g>
	<g>
		<polygon class="st18" points="76.4,520 22,524.9 22,516.3 76.4,511.5 		"/>
	</g>
	<g>
		<g>
			<polygon class="st18" points="966.5,515.6 1021,517.3 1021,508.8 966.5,507 			"/>
			<polygon class="st18" points="858.1,512.1 912.5,513.9 912.5,505.3 858.1,503.6 			"/>
			<polygon class="st18" points="749.6,508.7 804.1,510.4 804.1,501.9 749.6,500.1 			"/>
		</g>
		<g>
			<polygon class="st18" points="1272.2,530.7 1272.2,539.3 1400,543.7 1400,535.2 			"/>
			<polygon class="st18" points="1164,529.6 1218.4,534.5 1218.4,525.9 1164,521.1 			"/>
			<polygon class="st18" points="1055.9,520 1110.2,524.9 1110.2,516.3 1055.9,511.5 			"/>
		</g>
	</g>
	<polygon class="st11" points="1037.7,492.4 732.9,481.9 399.4,481.9 94.5,492.4 0,498.6 0,504 94.5,497.8 399.4,487.3 732.9,487.3 
		1037.7,497.8 1400,520.3 1400,514.8 	"/>
	<rect x="399.4" y="135.9" class="st8" width="333.5" height="6.3"/>
	<polygon class="st8" points="1037.7,56.5 732.9,135.9 732.9,142.2 1037.7,65.1 1097.5,0 1086.1,0 	"/>
	<polygon class="st8" points="94.5,65.1 399.3,142.2 399.3,135.9 94.5,56.5 46.1,0 34.7,0 	"/>
</g>
<g id="Layer_6">
	<g class="st19">
		<path class="st9" d="M457.7,549.7c-7.6,0.9-13.8,5.4-16,11.5c-0.8,2.3-2.9,3.8-5.2,3.8h-13l3.2-33.5h33.5v15
			C460.3,548.1,459.2,549.5,457.7,549.7z"/>
		<rect x="434.7" y="531.5" class="st17" width="28.4" height="4.3"/>
		<path class="st17" d="M434.3,549.7c-3.1,0.9-5.6,5.4-6.4,11.5c-0.3,2.3-1.7,3.8-2.7,3.8h-1.6l1.5-33.5h10.3v15
			C435.4,548.1,434.9,549.5,434.3,549.7z"/>
		<polygon class="st9" points="441,519.4 444.3,519.4 448.2,531.5 444.9,531.5 		"/>
		<rect x="437" y="519.4" class="st11" width="3.3" height="12.1"/>
		<polygon class="st11" points="422.9,519.4 426.2,519.4 430.1,531.5 426.8,531.5 		"/>
		<rect x="456.3" y="519.4" class="st9" width="3.3" height="12.1"/>
	</g>
	<g class="st19">
		<path class="st9" d="M669.7,549.7c7.6,0.9,13.8,5.4,16,11.5c0.8,2.3,2.9,3.8,5.2,3.8h13l-3.2-33.5h-33.5v15
			C667.1,548.1,668.2,549.5,669.7,549.7z"/>
		<rect x="664.3" y="531.5" class="st17" width="28.4" height="4.3"/>
		<path class="st17" d="M693.1,549.7c3.1,0.9,5.6,5.4,6.4,11.5c0.3,2.3,1.7,3.8,2.7,3.8h1.7l-1.5-33.5H692v15
			C692,548.1,692.5,549.5,693.1,549.7z"/>
		<polygon class="st9" points="686.4,519.4 683.1,519.4 679.2,531.5 682.5,531.5 		"/>
		<rect x="687.1" y="519.4" class="st11" width="3.3" height="12.1"/>
		<polygon class="st11" points="704.5,519.4 701.2,519.4 697.3,531.5 700.6,531.5 		"/>
		<rect x="667.8" y="519.4" class="st9" width="3.3" height="12.1"/>
	</g>
	<path class="st20" d="M566.1,226.1c-79.6,0-144.3,114-146.1,255.8l292.3,0C710.4,340.1,645.7,226.1,566.1,226.1z"/>
	<path class="st20" d="M384.9,478.1c0-153.2-61.8-277.5-138-277.5S109,324.8,109,478.1c0,4.6,0.1,9.2,0.2,13.8l275.8-9.5
		C384.9,481,384.9,479.5,384.9,478.1z"/>
	<path class="st20" d="M66.6,426.8C66.6,303.5,40,195.2,0,134V499l63.9-4.1C65.7,472.9,66.6,450.1,66.6,426.8z"/>
	<path class="st20" d="M1208.1,71.8c-78.5,0-142.2,154.7-142.2,345.6c0,26.6,1.2,52.6,3.6,77.5l330.5,19.9V199.2
		C1360.4,121.5,1252.6,71.8,1208.1,71.8z"/>
	<path class="st20" d="M891.8,199.1c-69.8,0-127.8,122.2-139.9,283.5l280.5,9.7C1022,326.3,963,199.1,891.8,199.1z"/>
	
		<radialGradient id="SVGID_00000007392616288124315190000012635507435997023671_" cx="575.2885" cy="318.9458" r="109.5661" gradientUnits="userSpaceOnUse">
		<stop  offset="0" style="stop-color:#FBB766"/>
		<stop  offset="1" style="stop-color:#000000"/>
	</radialGradient>
	
		<rect x="465.7" y="209.4" style="fill:url(#SVGID_00000007392616288124315190000012635507435997023671_);" width="219.1" height="219.1"/>
	
		<radialGradient id="SVGID_00000091004363841075518760000003846187794043073463_" cx="448.0859" cy="386.2731" r="109.5694" gradientTransform="matrix(0.4616 0 0 0.9716 600.8129 6.7901)" gradientUnits="userSpaceOnUse">
		<stop  offset="0" style="stop-color:#FBB766"/>
		<stop  offset="1" style="stop-color:#000000"/>
	</radialGradient>
	
		<rect x="757.1" y="275.6" style="fill:url(#SVGID_00000091004363841075518760000003846187794043073463_);" width="101.2" height="212.9"/>
	
		<radialGradient id="SVGID_00000160875369405496722720000013526069067319921584_" cx="-590.6989" cy="364.8678" r="109.5693" gradientTransform="matrix(0.4616 0 0 0.9716 600.8129 6.7901)" gradientUnits="userSpaceOnUse">
		<stop  offset="0" style="stop-color:#FBB766"/>
		<stop  offset="1" style="stop-color:#000000"/>
	</radialGradient>
	
		<rect x="277.6" y="254.8" style="fill:url(#SVGID_00000160875369405496722720000013526069067319921584_);" width="101.2" height="212.9"/>
	
		<radialGradient id="SVGID_00000010992705498578856730000011382702069702645930_" cx="-879.2626" cy="339.1035" r="118.8687" gradientTransform="matrix(0.4616 0 0 0.9716 600.8129 6.7901)" gradientUnits="userSpaceOnUse">
		<stop  offset="0" style="stop-color:#FBB766"/>
		<stop  offset="1" style="stop-color:#000000"/>
	</radialGradient>
	
		<rect x="140.1" y="220.8" style="fill:url(#SVGID_00000010992705498578856730000011382702069702645930_);" width="109.7" height="231"/>
	
		<radialGradient id="SVGID_00000088093285853029261230000003230820680503262110_" cx="35.1739" cy="279.3939" r="91.6096" gradientUnits="userSpaceOnUse">
		<stop  offset="0" style="stop-color:#FBB766"/>
		<stop  offset="1" style="stop-color:#000000"/>
	</radialGradient>
	
		<rect x="0" y="154.7" style="fill:url(#SVGID_00000088093285853029261230000003230820680503262110_);" width="70.3" height="249.4"/>
	
		<radialGradient id="SVGID_00000120540881392368883760000000040361959952169113_" cx="1370.5907" cy="231.3679" r="128.3374" gradientTransform="matrix(0.4616 0 0 0.9716 600.8129 6.7901)" gradientUnits="userSpaceOnUse">
		<stop  offset="0" style="stop-color:#FBB766"/>
		<stop  offset="1" style="stop-color:#000000"/>
	</radialGradient>
	
		<rect x="1174.2" y="106.9" style="fill:url(#SVGID_00000120540881392368883760000000040361959952169113_);" width="118.5" height="249.4"/>
	
		<radialGradient id="SVGID_00000115494172878022193660000007891129051373443507_" cx="1595.9019" cy="757.3702" r="121.9361" gradientTransform="matrix(0 0.4616 -0.6587 0 1437.2728 -448.7956)" gradientUnits="userSpaceOnUse">
		<stop  offset="0" style="stop-color:#FBB766"/>
		<stop  offset="1" style="stop-color:#000000"/>
	</radialGradient>
	<polygon style="fill:url(#SVGID_00000115494172878022193660000007891129051373443507_);" points="858.1,344.2 858.1,231.6 
		1018.7,231.6 1018.7,344.2 	"/>
	
		<radialGradient id="SVGID_00000169557222509866268620000005669315999138158724_" cx="1803.2643" cy="750.9172" r="121.9361" gradientTransform="matrix(0 0.4616 -0.6587 0 1437.2728 -448.7956)" gradientUnits="userSpaceOnUse">
		<stop  offset="0" style="stop-color:#FBB766"/>
		<stop  offset="1" style="stop-color:#000000"/>
	</radialGradient>
	<polygon style="fill:url(#SVGID_00000169557222509866268620000005669315999138158724_);" points="862.3,439.9 862.3,327.3 
		1023,327.3 1023,439.9 	"/>
	<g>
		<path class="st9" d="M457.7,489.1c-7.6-0.9-13.8-5.4-16-11.5c-0.8-2.3-2.9-3.8-5.2-3.8h-13l3.2,33.5h33.5v-15
			C460.3,490.7,459.2,489.3,457.7,489.1z"/>
		<rect x="434.7" y="503" class="st17" width="28.4" height="4.3"/>
		<path class="st17" d="M434.3,489.1c-3.1-0.9-5.6-5.4-6.4-11.5c-0.3-2.3-1.7-3.8-2.7-3.8h-1.6l1.5,33.5h10.3v-15
			C435.4,490.7,434.9,489.3,434.3,489.1z"/>
		<polygon class="st9" points="441,519.4 444.3,519.4 448.2,507.3 444.9,507.3 		"/>
		<rect x="437" y="507.3" class="st11" width="3.3" height="12.1"/>
		<polygon class="st11" points="422.9,519.4 426.2,519.4 430.1,507.3 426.8,507.3 		"/>
		<rect x="456.3" y="507.3" class="st9" width="3.3" height="12.1"/>
	</g>
	<g>
		<path class="st9" d="M669.7,489.1c7.6-0.9,13.8-5.4,16-11.5c0.8-2.3,2.9-3.8,5.2-3.8h13l-3.2,33.5h-33.5v-15
			C667.1,490.7,668.2,489.3,669.7,489.1z"/>
		<rect x="664.3" y="503" class="st17" width="28.4" height="4.3"/>
		<path class="st17" d="M693.1,489.1c3.1-0.9,5.6-5.4,6.4-11.5c0.3-2.3,1.7-3.8,2.7-3.8h1.7l-1.5,33.5H692v-15
			C692,490.7,692.5,489.3,693.1,489.1z"/>
		<polygon class="st9" points="686.4,519.4 683.1,519.4 679.2,507.3 682.5,507.3 		"/>
		<rect x="687.1" y="507.3" class="st11" width="3.3" height="12.1"/>
		<polygon class="st11" points="704.5,519.4 701.2,519.4 697.3,507.3 700.6,507.3 		"/>
		<rect x="667.8" y="507.3" class="st9" width="3.3" height="12.1"/>
	</g>
	<g>
		<path class="st17" d="M741.5,485.7c-3,0.1-1.8-2.9-0.7-5.3c1.1-2.4,2.3-5.3,0-5.6c-2.3-0.3-2.8-1.4-1.2-4.5c2-3.9,0.2-7.1-2.9-4.8
			c-2.2,1.7-0.6-6.1-2.1-7.8c-1.7-2.1-4.9-0.7-5,2.3c-0.1,4.9-3,1.5-4,3.4c-1.5,3,2.6,6.9-0.1,7.5c-2.8,0.6-2.2,3.2-1.2,5.2
			c1,2,3.6,5.1-0.5,6.3c-2.8,0.9,1.2,9.9,2.1,11.8h-1.2v25.1h14.6h2.7v-25.1h-1c0.3-0.5,1-1.7,1.9-3.6
			C744,487.9,744.4,485.7,741.5,485.7z"/>
	</g>
	<path class="st17" d="M416.3,485.7c-3,0.1-1.8-2.9-0.7-5.3c1.1-2.4,2.3-5.3,0-5.6c-2.3-0.3-2.8-1.4-1.2-4.5c2-3.9,0.2-7.1-2.9-4.8
		c-2.2,1.7-0.6-6.1-2.1-7.8c-1.7-2.1-4.9-0.7-5,2.3c-0.1,4.9-3,1.5-4,3.4c-1.5,3,2.6,6.9-0.1,7.5c-2.8,0.6-2.2,3.2-1.2,5.2
		c1,2,3.6,5.1-0.5,6.3c-2.8,0.9,1.2,9.9,2.1,11.8h-1.2v25.1H414h2.7v-25.1h-1c0.3-0.5,1-1.7,1.9-3.6
		C418.9,487.9,419.3,485.7,416.3,485.7z"/>
	<g>
		<g>
			<path class="st29" d="M408.4,478.6c-3.6,0.1-2.2-3.5-0.9-6.4c1.3-2.9,2.8-6.5,0-6.8c-2.8-0.3-3.4-1.8-1.5-5.4
				c2.5-4.7,0.2-8.7-3.5-5.8c-2.7,2.1-0.8-7.4-2.6-9.5c-2.1-2.5-5.9-0.9-6,2.8c-0.2,5.9-3.7,1.9-4.8,4.1c-1.8,3.7,3.2,8.4-0.2,9.1
				s-2.6,3.9-1.5,6.3c1.2,2.4,4.4,6.1-0.6,7.7c-3.4,1.1,1.5,12,2.5,14.3h18.4c0.4-0.7,1.2-2.1,2.3-4.4
				C411.5,481.1,412,478.5,408.4,478.6z"/>
			<g>
				<rect x="397.1" y="455.2" class="st8" width="0.7" height="33.7"/>
			</g>
			<g>
				
					<rect x="396.2" y="462.2" transform="matrix(0.6001 -0.7999 0.7999 0.6001 -210.2582 504.4091)" class="st8" width="6.3" height="0.7"/>
			</g>
			<g>
				<rect x="395.2" y="466.6" transform="matrix(0.8 -0.6 0.6 0.8 -202.7269 331.3002)" class="st8" width="0.7" height="6.3"/>
			</g>
			<g>
				
					<rect x="395.4" y="474.6" transform="matrix(0.5919 -0.806 0.806 0.5919 -219.3932 516.5256)" class="st8" width="9.9" height="0.7"/>
			</g>
			<g>
				
					<rect x="394.2" y="477.6" transform="matrix(0.8059 -0.592 0.592 0.8059 -209.1471 327.22)" class="st8" width="0.7" height="9.9"/>
			</g>
		</g>
		<rect x="387.9" y="488.9" class="st11" width="21" height="30.4"/>
		<rect x="387.9" y="488.9" class="st30" width="17.7" height="30.4"/>
	</g>
	<g>
		<rect x="74" y="444.5" class="st11" width="51.6" height="87.6"/>
		<rect x="74" y="444.5" class="st30" width="43.5" height="87.6"/>
	</g>
	<g class="st31">
		<rect x="74" y="532.1" class="st11" width="51.6" height="87.6"/>
		<rect x="74" y="532.1" class="st30" width="43.5" height="87.6"/>
	</g>
	<g>
		<rect x="1022.7" y="446.2" class="st11" width="51.6" height="87.6"/>
		<rect x="1030.9" y="446.2" class="st30" width="43.5" height="87.6"/>
	</g>
	<g class="st31">
		<rect x="1022.7" y="533.8" class="st11" width="51.6" height="87.6"/>
		<rect x="1030.9" y="533.8" class="st30" width="43.5" height="87.6"/>
	</g>
	<g>
		<g>
			<path class="st29" d="M735.8,478.6c-3.6,0.1-2.2-3.5-0.9-6.4c1.3-2.9,2.8-6.5,0-6.8c-2.8-0.3-3.4-1.8-1.5-5.4
				c2.5-4.7,0.2-8.7-3.5-5.8c-2.7,2.1-0.8-7.4-2.6-9.5c-2.1-2.5-5.9-0.9-6,2.8c-0.2,5.9-3.7,1.9-4.8,4.1c-1.8,3.7,3.2,8.4-0.2,9.1
				c-3.3,0.7-2.6,3.9-1.5,6.3c1.2,2.4,4.4,6.1-0.6,7.7c-3.4,1.1,1.5,12,2.5,14.3h18.4c0.4-0.7,1.2-2.1,2.3-4.4
				C739,481.1,739.5,478.5,735.8,478.6z"/>
			<g>
				<rect x="724.6" y="455.2" class="st8" width="0.7" height="33.7"/>
			</g>
			<g>
				
					<rect x="723.7" y="462.2" transform="matrix(0.6001 -0.7999 0.7999 0.6001 -79.2881 766.3786)" class="st8" width="6.3" height="0.7"/>
			</g>
			<g>
				<rect x="722.7" y="466.6" transform="matrix(0.8 -0.6 0.6 0.8 -137.2258 527.7964)" class="st8" width="0.7" height="6.3"/>
			</g>
			<g>
				
					<rect x="722.9" y="474.6" transform="matrix(0.5919 -0.806 0.806 0.5919 -85.7536 780.4766)" class="st8" width="9.9" height="0.7"/>
			</g>
			<g>
				
					<rect x="721.7" y="477.6" transform="matrix(0.8059 -0.592 0.592 0.8059 -145.5897 521.0975)" class="st8" width="0.7" height="9.9"/>
			</g>
		</g>
		<rect x="715.4" y="488.9" class="st11" width="21" height="30.4"/>
		<rect x="715.4" y="488.9" class="st30" width="17.7" height="30.4"/>
	</g>
	<g class="st32">
		<g>
			<path class="st29" d="M408.4,560.1c-3.6-0.1-2.2,3.5-0.9,6.4c1.3,2.9,2.8,6.5,0,6.8c-2.8,0.3-3.4,1.8-1.5,5.4
				c2.5,4.7,0.2,8.7-3.5,5.8c-2.7-2.1-0.8,7.4-2.6,9.5c-2.1,2.5-5.9,0.9-6-2.8c-0.2-5.9-3.7-1.9-4.8-4.1c-1.8-3.7,3.2-8.4-0.2-9.1
				s-2.6-3.9-1.5-6.3s4.4-6.1-0.6-7.7c-3.4-1.1,1.5-12,2.5-14.3h18.4c0.4,0.7,1.2,2.1,2.3,4.4C411.5,557.5,412,560.2,408.4,560.1z"
				/>
			<g>
				<rect x="397.1" y="549.8" class="st8" width="0.7" height="33.7"/>
			</g>
			<g>
				
					<rect x="399" y="573" transform="matrix(0.7999 -0.6001 0.6001 0.7999 -265.8451 354.8923)" class="st8" width="0.7" height="6.3"/>
			</g>
			<g>
				<rect x="392.4" y="568.6" transform="matrix(0.6 -0.8 0.8 0.6 -296.9012 544.0039)" class="st8" width="6.3" height="0.7"/>
			</g>
			<g>
				
					<rect x="400.1" y="558.7" transform="matrix(0.806 -0.5919 0.5919 0.806 -255.9968 346.366)" class="st8" width="0.7" height="9.9"/>
			</g>
			<g>
				
					<rect x="389.5" y="555.7" transform="matrix(0.592 -0.8059 0.8059 0.592 -287.171 544.7892)" class="st8" width="9.9" height="0.7"/>
			</g>
		</g>
		<rect x="387.9" y="519.3" class="st11" width="21" height="30.4"/>
		<rect x="387.9" y="519.3" class="st30" width="17.7" height="30.4"/>
	</g>
	<g class="st32">
		<g>
			<path class="st29" d="M735.8,560.1c-3.6-0.1-2.2,3.5-0.9,6.4c1.3,2.9,2.8,6.5,0,6.8c-2.8,0.3-3.4,1.8-1.5,5.4
				c2.5,4.7,0.2,8.7-3.5,5.8c-2.7-2.1-0.8,7.4-2.6,9.5c-2.1,2.5-5.9,0.9-6-2.8c-0.2-5.9-3.7-1.9-4.8-4.1c-1.8-3.7,3.2-8.4-0.2-9.1
				c-3.3-0.7-2.6-3.9-1.5-6.3c1.2-2.4,4.4-6.1-0.6-7.7c-3.4-1.1,1.5-12,2.5-14.3h18.4c0.4,0.7,1.2,2.1,2.3,4.4
				C739,557.5,739.5,560.2,735.8,560.1z"/>
			<g>
				<rect x="724.6" y="549.8" class="st8" width="0.7" height="33.7"/>
			</g>
			<g>
				
					<rect x="726.5" y="573" transform="matrix(0.7999 -0.6001 0.6001 0.7999 -200.3307 551.4061)" class="st8" width="0.7" height="6.3"/>
			</g>
			<g>
				<rect x="719.9" y="568.6" transform="matrix(0.6 -0.8 0.8 0.6 -165.9135 805.9866)" class="st8" width="6.3" height="0.7"/>
			</g>
			<g>
				
					<rect x="727.5" y="558.7" transform="matrix(0.806 -0.5919 0.5919 0.806 -192.4639 540.2103)" class="st8" width="0.7" height="9.9"/>
			</g>
			<g>
				
					<rect x="717" y="555.7" transform="matrix(0.592 -0.8059 0.8059 0.592 -153.5661 808.7146)" class="st8" width="9.9" height="0.7"/>
			</g>
		</g>
		<rect x="715.4" y="519.3" class="st11" width="21" height="30.4"/>
		<rect x="715.4" y="519.3" class="st30" width="17.7" height="30.4"/>
	</g>
	<g>
		<path class="st9" d="M108.8,421.9c0,8.5-2.9,14.2-7.2,17.1v5.5H85.9V439c-4.3-2.9-7.2-8.6-7.2-17.1c0-8.9,3.1-18.5,7.7-23.8
			l-2.4-21.4h19.4l-2.4,21.4C105.7,403.4,108.8,413,108.8,421.9z"/>
		<path class="st33" d="M103.1,421.9c0,8.5-2.9,14.2-7.2,17.1v5.5h-10V439c-4.3-2.9-7.2-8.6-7.2-17.1c0-8.9,3.1-18.5,7.7-23.8
			l-2.4-21.4h13.7l-2.4,21.4C100,403.4,103.1,413,103.1,421.9z"/>
		<path class="st8" d="M115.8,406.6h-3.4v11.8c-1.6,3.6-2.8,11.6-2.8,17.3c0,4.1,0.6,6.2,1.6,7.2v1.6h5.8v-1.6c1-1,1.6-3.1,1.6-7.2
			c0-5.7-1.1-13.7-2.8-17.3V406.6z"/>
	</g>
	<polygon class="st11" points="113.6,436.6 99.9,436.6 103,444.5 116.8,444.5 	"/>
	<path class="st9" d="M1078.1,416.9v3.8c0,14.1-9.7,25.5-21.7,25.5h-11.8c-12,0-21.7-11.4-21.7-25.5v-3.8H1078.1z"/>
	<path class="st10" d="M1067,416.9v3.8c0,14.1-9.7,25.5-21.7,25.5h-0.7c-12,0-21.7-11.4-21.7-25.5v-3.8H1067z"/>
</g>
<g id="Layer_7">
	<g>
		<g>
			<g>
				<path class="st17" d="M504.1,484.3c-19.7,0-30.4-7-30.5-7l0.4-0.5c0.1,0.1,10.6,6.9,30.1,6.9c19.5,0,30-6.8,30.1-6.9l0.4,0.5
					C534.5,477.4,523.8,484.3,504.1,484.3z"/>
			</g>
			<g>
				<g>
					<g>
						<rect x="472.7" y="475" class="st34" width="2.3" height="47.1"/>
						<rect x="473.9" y="475" class="st35" width="1.1" height="47.1"/>
					</g>
					<rect x="475" y="476.1" class="st17" width="0.6" height="3.1"/>
					<rect x="472" y="476.1" class="st17" width="0.6" height="3.1"/>
					<rect x="473.5" y="476.1" class="st17" width="0.6" height="3.1"/>
				</g>
			</g>
			<path class="st17" d="M477.4,524.2h-7.2v-1.1c0-0.5,0.4-1,1-1h5.2c0.5,0,1,0.4,1,1V524.2z"/>
		</g>
		<g>
			<g>
				<path class="st17" d="M565.7,484.3c-19.7,0-30.4-7-30.5-7l0.4-0.5c0.1,0.1,10.6,6.9,30.1,6.9c19.5,0,30-6.8,30.1-6.9l0.4,0.5
					C596,477.4,585.4,484.3,565.7,484.3z"/>
			</g>
			<g>
				<g>
					<g>
						<rect x="534.2" y="475" class="st34" width="2.3" height="47.1"/>
						<rect x="535.4" y="475" class="st35" width="1.1" height="47.1"/>
					</g>
					<rect x="536.5" y="476.1" class="st17" width="0.6" height="3.1"/>
					<rect x="533.6" y="476.1" class="st17" width="0.6" height="3.1"/>
					<rect x="535.1" y="476.1" class="st17" width="0.6" height="3.1"/>
				</g>
			</g>
			<path class="st17" d="M539,524.2h-7.2v-1.1c0-0.5,0.4-1,1-1h5.2c0.5,0,1,0.4,1,1V524.2z"/>
		</g>
		<g>
			<g>
				<path class="st17" d="M627.2,484.3c-19.7,0-30.4-7-30.5-7l0.4-0.5c0.1,0.1,10.6,6.9,30.1,6.9c19.5,0,30-6.8,30.1-6.9l0.4,0.5
					C657.6,477.4,646.9,484.3,627.2,484.3z"/>
			</g>
			<g>
				<g>
					<g>
						<rect x="595.8" y="475" class="st34" width="2.3" height="47.1"/>
						<rect x="596.9" y="475" class="st35" width="1.1" height="47.1"/>
					</g>
					<rect x="598" y="476.1" class="st17" width="0.6" height="3.1"/>
					<rect x="595.1" y="476.1" class="st17" width="0.6" height="3.1"/>
					<rect x="596.6" y="476.1" class="st17" width="0.6" height="3.1"/>
				</g>
			</g>
			<path class="st17" d="M600.5,524.2h-7.2v-1.1c0-0.5,0.4-1,1-1h5.2c0.5,0,1,0.4,1,1V524.2z"/>
		</g>
		<g>
			<g>
				<g>
					<g>
						<rect x="657.3" y="475" class="st34" width="2.3" height="47.1"/>
						<rect x="658.5" y="475" class="st35" width="1.1" height="47.1"/>
					</g>
					<rect x="659.6" y="476.1" class="st17" width="0.6" height="3.1"/>
					<rect x="656.7" y="476.1" class="st17" width="0.6" height="3.1"/>
					<rect x="658.2" y="476.1" class="st17" width="0.6" height="3.1"/>
				</g>
			</g>
			<path class="st17" d="M662,524.2h-7.2v-1.1c0-0.5,0.4-1,1-1h5.2c0.5,0,1,0.4,1,1V524.2z"/>
		</g>
	</g>
	<g>
		<g>
			<g>
				<path class="st17" d="M194.9,491c-19.9,0-30.7-6.7-30.8-6.8l0.4-0.6c0.1,0.1,11.6,7.2,32.8,6.7c21.2-0.6,32.7-8.3,32.8-8.4
					l0.4,0.6c-0.1,0.1-11.7,8-33.2,8.5C196.5,491,195.7,491,194.9,491z"/>
			</g>
			<g>
				<g>
					<g>
						<polygon class="st34" points="165.5,481.7 163,481.8 163,533.1 165.5,533 						"/>
						<polygon class="st35" points="165.5,481.7 164.3,481.7 164.3,533 165.5,533 						"/>
					</g>
					<polygon class="st17" points="166.2,486.3 165.5,486.3 165.5,482.9 166.2,482.9 					"/>
					<polygon class="st17" points="163,486.3 162.3,486.4 162.3,483 163,483 					"/>
					<polygon class="st17" points="164.6,486.3 163.9,486.3 163.9,482.9 164.6,482.9 					"/>
				</g>
			</g>
			<path class="st17" d="M168.2,535.2l-7.9,0.2v-1.2c0-0.6,0.5-1.1,1.1-1.1l5.7-0.2c0.6,0,1.1,0.5,1.1,1.1V535.2z"/>
		</g>
		<g>
			<g>
				<path class="st17" d="M262,489.2c-19.9,0-30.7-6.7-30.8-6.8l0.4-0.6c0.1,0.1,11.6,7.2,32.8,6.7c21.2-0.6,32.7-8.3,32.8-8.4
					l0.4,0.6c-0.1,0.1-11.7,8-33.2,8.5C263.5,489.2,262.7,489.2,262,489.2z"/>
			</g>
			<g>
				<g>
					<g>
						<polygon class="st34" points="232.5,479.9 230,480 230,531.3 232.5,531.2 						"/>
						<polygon class="st35" points="232.5,479.9 231.3,479.9 231.3,531.2 232.5,531.2 						"/>
					</g>
					<polygon class="st17" points="233.2,484.5 232.5,484.5 232.5,481.1 233.2,481.1 					"/>
					<polygon class="st17" points="230,484.6 229.4,484.6 229.4,481.2 230,481.2 					"/>
					<polygon class="st17" points="231.7,484.5 231,484.5 231,481.1 231.7,481.1 					"/>
				</g>
			</g>
			<path class="st17" d="M235.2,533.4l-7.9,0.2v-1.2c0-0.6,0.5-1.1,1.1-1.1l5.7-0.2c0.6,0,1.1,0.5,1.1,1.1V533.4z"/>
		</g>
		<g>
			<g>
				<path class="st17" d="M329,487.4c-19.9,0-30.7-6.7-30.8-6.8l0.4-0.6c0.1,0.1,11.6,7.2,32.8,6.7c21.2-0.6,32.7-8.3,32.8-8.4
					l0.4,0.6c-0.1,0.1-11.7,8-33.2,8.5C330.6,487.4,329.8,487.4,329,487.4z"/>
			</g>
			<g>
				<g>
					<g>
						<polygon class="st34" points="299.6,478.1 297.1,478.2 297.1,529.5 299.6,529.4 						"/>
						<polygon class="st35" points="299.6,478.1 298.4,478.2 298.4,529.4 299.6,529.4 						"/>
					</g>
					<polygon class="st17" points="300.3,482.7 299.6,482.7 299.6,479.3 300.3,479.3 					"/>
					<polygon class="st17" points="297.1,482.8 296.4,482.8 296.4,479.4 297.1,479.4 					"/>
					<polygon class="st17" points="298.8,482.7 298.1,482.7 298.1,479.4 298.8,479.3 					"/>
				</g>
			</g>
			<path class="st17" d="M302.3,531.6l-7.9,0.2v-1.2c0-0.6,0.5-1.1,1.1-1.1l5.7-0.2c0.6,0,1.1,0.5,1.1,1.1V531.6z"/>
		</g>
		<g>
			<g>
				<g>
					<g>
						<polygon class="st34" points="366.7,476.3 364.2,476.4 364.2,527.7 366.7,527.6 						"/>
						<polygon class="st35" points="366.7,476.3 365.5,476.4 365.5,527.7 366.7,527.6 						"/>
					</g>
					<polygon class="st17" points="367.4,480.9 366.7,480.9 366.7,477.5 367.4,477.5 					"/>
					<polygon class="st17" points="364.2,481 363.5,481 363.5,477.6 364.2,477.6 					"/>
					<polygon class="st17" points="365.9,480.9 365.2,481 365.2,477.6 365.9,477.6 					"/>
				</g>
			</g>
			<path class="st17" d="M369.4,529.8l-7.9,0.2v-1.2c0-0.6,0.5-1.1,1.1-1.1l5.7-0.2c0.6,0,1.1,0.5,1.1,1.1V529.8z"/>
		</g>
	</g>
	<g>
		<rect x="478" y="522.1" class="st11" width="17.8" height="2"/>
		<rect x="485.8" y="455.5" class="st36" width="1.3" height="66.6"/>
		<rect x="482.2" y="444" class="st11" width="8.6" height="11.5"/>
	</g>
	<g>
		<rect x="748.8" y="522.1" class="st11" width="17.8" height="2"/>
		<rect x="756.6" y="455.5" class="st36" width="1.3" height="66.6"/>
		<rect x="752.9" y="444" class="st11" width="8.6" height="11.5"/>
	</g>
	<g>
		<g>
			<g>
				<path class="st17" d="M35.3,489.5l-0.5-0.8c-0.1,0.1-12.2,7.4-34.8,11.4v1C23,497,35.2,489.6,35.3,489.5z"/>
			</g>
		</g>
		<g>
			<g>
				<g>
					<g>
						<polygon class="st34" points="38.5,486.2 34.8,486.5 34.8,547.6 38.5,547.3 						"/>
						<polygon class="st35" points="38.5,486.2 36.7,486.4 36.7,547.4 38.5,547.3 						"/>
					</g>
					<polygon class="st17" points="39.5,491.6 38.5,491.7 38.5,487.6 39.5,487.5 					"/>
					<polygon class="st17" points="34.8,492 33.7,492.1 33.7,488.1 34.8,488 					"/>
					<polygon class="st17" points="37.2,491.8 36.2,491.9 36.2,487.8 37.2,487.7 					"/>
				</g>
			</g>
			<path class="st17" d="M42.5,549.6l-11.7,1.1v-1.4c0-0.7,0.7-1.4,1.6-1.4l8.5-0.8c0.9-0.1,1.6,0.4,1.6,1.1V549.6z"/>
		</g>
	</g>
	<g>
		<g>
			<g>
				<path class="st17" d="M1291.5,507.2l-0.5,0.8c0.1,0.1,75.7,5.8,109,10.1v-1C1366.9,512.9,1291.6,507.3,1291.5,507.2z"/>
			</g>
		</g>
		<g>
			<g>
				<path class="st17" d="M1252.7,513.4c-4.7,0-9.8-0.2-15.2-0.7c-33.3-3-51.2-13.7-51.4-13.8l0.5-0.8c0.2,0.1,17.9,10.7,51,13.7
					c33.4,3,51.6-4.6,51.8-4.7l0.4,0.9C1289.5,508,1276.6,513.4,1252.7,513.4z"/>
			</g>
			<g>
				<g>
					<g>
						<polygon class="st34" points="1287.6,504.7 1291.6,505 1291.6,568.1 1287.6,567.7 						"/>
						<polygon class="st35" points="1287.6,504.7 1289.5,504.8 1289.5,567.9 1287.6,567.7 						"/>
					</g>
					<polygon class="st17" points="1286.5,510.2 1287.6,510.3 1287.6,506.1 1286.5,506 					"/>
					<polygon class="st17" points="1291.6,510.6 1292.7,510.7 1292.7,506.6 1291.6,506.5 					"/>
					<polygon class="st17" points="1288.9,510.4 1290,510.5 1290,506.3 1288.9,506.3 					"/>
				</g>
			</g>
			<path class="st17" d="M1283.3,570.1l12.5,1.2v-1.4c0-0.7-0.8-1.4-1.7-1.5l-9.1-0.9c-0.9-0.1-1.7,0.4-1.7,1.2V570.1z"/>
		</g>
		<g>
			<g>
				<path class="st17" d="M1148.8,504.2c-4.5,0-9.3-0.2-14.5-0.7c-32.3-2.9-49.6-13.4-49.8-13.5l0.5-0.8
					c0.2,0.1,17.3,10.5,49.4,13.4c32.4,2.9,50-4.6,50.1-4.7l0.4,0.9C1184.7,498.8,1172.1,504.2,1148.8,504.2z"/>
			</g>
			<g>
				<g>
					<g>
						<polygon class="st34" points="1182.8,495.5 1186.6,495.9 1186.6,557.9 1182.8,557.6 						"/>
						<polygon class="st35" points="1182.8,495.5 1184.6,495.7 1184.6,557.7 1182.8,557.6 						"/>
					</g>
					<polygon class="st17" points="1181.7,501 1182.8,501.1 1182.8,497 1181.7,496.9 					"/>
					<polygon class="st17" points="1186.6,501.4 1187.7,501.5 1187.7,497.4 1186.6,497.3 					"/>
					<polygon class="st17" points="1184.1,501.2 1185.2,501.3 1185.2,497.2 1184.1,497.1 					"/>
				</g>
			</g>
			<path class="st17" d="M1178.7,559.9l12.1,1.2v-1.4c0-0.7-0.7-1.4-1.7-1.5l-8.8-0.8c-0.9-0.1-1.7,0.4-1.7,1.1V559.9z"/>
		</g>
		<g>
			<g>
				<g>
					<g>
						<polygon class="st34" points="1081.3,486.7 1085,487 1085,548.1 1081.3,547.8 						"/>
						<polygon class="st35" points="1081.3,486.7 1083.1,486.9 1083.1,547.9 1081.3,547.8 						"/>
					</g>
					<polygon class="st17" points="1080.3,492.1 1081.3,492.2 1081.3,488.1 1080.3,488 					"/>
					<polygon class="st17" points="1085,492.5 1086.1,492.6 1086.1,488.6 1085,488.5 					"/>
					<polygon class="st17" points="1082.6,492.3 1083.6,492.4 1083.6,488.3 1082.6,488.2 					"/>
				</g>
			</g>
			<path class="st17" d="M1077.3,550.1l11.7,1.1v-1.4c0-0.7-0.7-1.4-1.6-1.4l-8.5-0.8c-0.9-0.1-1.6,0.4-1.6,1.1V550.1z"/>
		</g>
	</g>
	<g>
		<g>
			<g>
				<path class="st17" d="M959.5,493.6c-1.7,0-3.5,0-5.3-0.2c-21.8-1.3-33.6-9.5-33.7-9.6l0.4-0.6c0.1,0.1,11.8,8.2,33.3,9.5
					c21.6,1.3,33.2-5.5,33.3-5.6l0.4,0.6C987.8,487.8,977.9,493.6,959.5,493.6z"/>
			</g>
			<g>
				<g>
					<g>
						<polygon class="st34" points="986.5,485.2 989.1,485.3 989.1,536.6 986.5,536.5 						"/>
						<polygon class="st35" points="986.5,485.2 987.8,485.3 987.8,536.6 986.5,536.5 						"/>
					</g>
					<polygon class="st17" points="985.8,489.7 986.5,489.8 986.5,486.4 985.8,486.3 					"/>
					<polygon class="st17" points="989.1,489.9 989.8,490 989.8,486.6 989.1,486.5 					"/>
					<polygon class="st17" points="987.4,489.8 988.1,489.9 988.1,486.5 987.4,486.4 					"/>
				</g>
			</g>
			<path class="st17" d="M983.8,538.6l8,0.5v-1.2c0-0.6-0.5-1.1-1.1-1.1l-5.8-0.3c-0.6,0-1.1,0.4-1.1,1V538.6z"/>
		</g>
		<g>
			<g>
				<path class="st17" d="M891.4,489.6c-1.7,0-3.5,0-5.3-0.2c-21.8-1.3-33.6-9.5-33.7-9.6l0.4-0.6c0.1,0.1,11.8,8.2,33.3,9.5
					c21.5,1.3,33.2-5.5,33.3-5.6l0.4,0.6C919.7,483.8,909.8,489.6,891.4,489.6z"/>
			</g>
			<g>
				<g>
					<g>
						<polygon class="st34" points="918.4,481.2 921,481.4 921,532.7 918.4,532.5 						"/>
						<polygon class="st35" points="918.4,481.2 919.7,481.3 919.7,532.6 918.4,532.5 						"/>
					</g>
					<polygon class="st17" points="917.7,485.8 918.4,485.8 918.4,482.4 917.7,482.4 					"/>
					<polygon class="st17" points="921,485.9 921.7,486 921.7,482.6 921,482.6 					"/>
					<polygon class="st17" points="919.3,485.8 920,485.9 920,482.5 919.3,482.5 					"/>
				</g>
			</g>
			<path class="st17" d="M915.7,534.6l8,0.5v-1.2c0-0.6-0.5-1.1-1.1-1.1l-5.8-0.3c-0.6,0-1.1,0.4-1.1,1V534.6z"/>
		</g>
		<g>
			<g>
				<path class="st17" d="M823.3,485.6c-1.7,0-3.5,0-5.3-0.2c-21.8-1.3-33.6-9.5-33.7-9.6l0.4-0.6c0.1,0.1,11.8,8.2,33.3,9.5
					c21.6,1.3,33.2-5.5,33.3-5.6l0.4,0.6C851.6,479.9,841.7,485.6,823.3,485.6z"/>
			</g>
			<g>
				<g>
					<g>
						<polygon class="st34" points="850.3,477.2 852.9,477.4 852.9,528.7 850.3,528.5 						"/>
						<polygon class="st35" points="850.3,477.2 851.5,477.3 851.5,528.6 850.3,528.5 						"/>
					</g>
					<polygon class="st17" points="849.6,481.8 850.3,481.8 850.3,478.4 849.6,478.4 					"/>
					<polygon class="st17" points="852.9,482 853.6,482 853.6,478.6 852.9,478.6 					"/>
					<polygon class="st17" points="851.2,481.9 851.9,481.9 851.9,478.5 851.2,478.5 					"/>
				</g>
			</g>
			<path class="st17" d="M847.6,530.6l8,0.5v-1.2c0-0.6-0.5-1.1-1.1-1.1l-5.8-0.3c-0.6,0-1.1,0.4-1.1,1V530.6z"/>
		</g>
		<g>
			<g>
				<g>
					<g>
						<polygon class="st34" points="782.2,473.3 784.7,473.4 784.7,524.7 782.2,524.6 						"/>
						<polygon class="st35" points="782.2,473.3 783.4,473.3 783.4,524.6 782.2,524.6 						"/>
					</g>
					<polygon class="st17" points="781.5,477.8 782.2,477.9 782.2,474.5 781.5,474.4 					"/>
					<polygon class="st17" points="784.7,478 785.4,478 785.4,474.7 784.7,474.6 					"/>
					<polygon class="st17" points="783.1,477.9 783.8,477.9 783.8,474.6 783.1,474.5 					"/>
				</g>
			</g>
			<path class="st17" d="M779.5,526.7l8,0.5V526c0-0.6-0.5-1.1-1.1-1.1l-5.8-0.3c-0.6,0-1.1,0.4-1.1,1V526.7z"/>
		</g>
	</g>
</g>
<g id="Layer_5">
	<polygon class="st8" points="1100.3,448.9 1100.3,360.5 1274.1,335.9 1274.1,448.9 	"/>
	<polygon class="st8" points="1274.6,293.3 1203,307.3 1203,155.1 1274.6,126.2 	"/>
	<polygon class="st8" points="1100.5,327.3 1100.5,196.6 1184.9,162.4 1184.9,310.8 	"/>
	<polygon class="st8" points="1002.7,354.9 1002.7,456.5 877.2,456.5 877.2,366.3 	"/>
	<polygon class="st8" points="850.6,457.1 773.5,457.1 773.5,331.9 850.6,321.2 	"/>
	<polygon class="st8" points="1002.7,244.3 1002.7,340.6 877.4,353.6 877.4,267.9 	"/>
	<polygon class="st8" points="56.7,226.2 0,192.4 0,461.6 56.7,461.6 	"/>
	<polygon class="st8" points="250.5,445.4 140.7,445.4 140.7,265.6 250.5,288.9 	"/>
	<polygon class="st8" points="367.2,445.4 284.2,445.4 284.2,296 367.2,313.6 	"/>
	
		<rect x="671.5" y="338" transform="matrix(6.123234e-17 -1 1 6.123234e-17 330.8474 1051.5601)" class="st8" width="39.4" height="44.7"/>
	
		<rect x="671.5" y="386.8" transform="matrix(-1.836970e-16 1 -1 -1.836970e-16 1100.0227 -282.0229)" class="st8" width="39" height="44.4"/>
	
		<rect x="672.6" y="294.2" transform="matrix(6.123234e-17 -1 1 6.123234e-17 374.7671 1007.7117)" class="st8" width="37.3" height="44.6"/>
	
		<rect x="433.1" y="338.9" transform="matrix(6.123234e-17 -1 1 6.123234e-17 91.4531 814.0444)" class="st8" width="39.4" height="44.7"/>
	
		<rect x="433.1" y="387.8" transform="matrix(-1.836970e-16 1 -1 -1.836970e-16 862.507 -42.6286)" class="st8" width="39" height="44.4"/>
	
		<rect x="434.1" y="295.1" transform="matrix(6.123234e-17 -1 1 6.123234e-17 135.3728 770.196)" class="st9" width="37.3" height="44.6"/>
	<g>
		<polygon class="st8" points="247.7,442.4 137.9,442.4 137.9,262.6 247.7,285.9 		"/>
		<polygon class="st10" points="237.7,429.8 150.5,428.4 150.5,279.4 237.7,296.4 		"/>
		<polygon class="st11" points="223.8,416.9 167,415.1 167,299.2 223.8,309.2 		"/>
	</g>
	<g>
		<polygon class="st8" points="998.4,352.1 998.4,453.6 872.9,453.7 872.9,363.4 		"/>
		<polygon class="st11" points="983.6,365.1 983.6,441.9 884.8,443 884.8,373 		"/>
		<polygon class="st10" points="969.8,379.9 969.8,428.4 898.4,430.1 898.4,384.7 		"/>
	</g>
	<g>
		<polygon class="st9" points="55.4,224.1 0,191 0,459.5 55.4,459.5 		"/>
		<polygon class="st11" points="49.1,233.4 0,205.7 0,444.9 49.1,446.5 		"/>
		<polygon class="st8" points="41.9,245 0,223 0,427.5 41.9,430.5 		"/>
	</g>
	<g>
		<polygon class="st8" points="846.2,454.3 769.1,454.3 769.1,329 846.2,318.3 		"/>
		<polygon class="st10" points="840.3,448.2 774.2,448.6 774.2,334 840.3,325.2 		"/>
		<polygon class="st11" points="830.7,440.6 782.7,441.3 782.7,342.1 830.7,336.3 		"/>
		<polygon class="st11" points="830.7,440.6 782.7,441.3 782.7,342.1 830.7,336.3 		"/>
		<polygon class="st8" points="823.8,430.5 789.1,431.3 789.1,349.4 823.8,345.5 		"/>
	</g>
	<g>
		<polygon class="st9" points="998.4,241.5 998.4,337.8 873,350.7 873,265.1 		"/>
		<polygon class="st8" points="991.5,249 991.5,332.2 878.5,344.5 878.5,269.7 		"/>
		<polygon class="st11" points="982.8,260.9 982.8,322.8 887.6,334.1 887.6,277.5 		"/>
		<polygon class="st10" points="982.8,260.9 982.8,322.8 887.6,334.1 887.6,277.5 		"/>
	</g>
	<g>
		<polygon class="st9" points="364.4,442.4 281.4,442.4 281.4,293 364.4,310.6 		"/>
		<polygon class="st8" points="359.5,435.7 287.4,435 287.4,301.8 359.5,316.4 		"/>
		<polygon class="st11" points="351.3,426.8 297.3,425.6 297.3,315.8 351.3,325.9 		"/>
		<polygon class="st9" points="357.3,433.4 290,432.6 290,305 357.3,318.4 		"/>
		<polygon class="st11" points="352.4,424.5 295.8,423 295.8,315.8 352.4,326.3 		"/>
		<polygon class="st8" points="344.2,412.5 305.3,410.8 305.3,330 344.2,336.5 		"/>
		<path class="st10" d="M338.6,374.2c0,20.3-5.9,25.7-13.3,25.3c-7.6-0.5-13.9-7.1-13.9-28.2c0-21.1,6.3-29.6,13.9-28.4
			C332.6,344,338.6,353.9,338.6,374.2z"/>
	</g>
	<g>
		<rect x="500.8" y="257.8" class="st8" width="138.4" height="199.6"/>
		<rect x="496.9" y="253.6" class="st9" width="138.4" height="199.6"/>
		<rect x="506" y="262.6" class="st8" width="120.3" height="181.7"/>
		<rect x="521" y="277.2" class="st11" width="90.2" height="155.7"/>
		<rect x="521" y="277.2" class="st11" width="90.2" height="155.7"/>
		<rect x="532" y="289.8" class="st8" width="68.2" height="127.7"/>
		<path class="st10" d="M532,417.4v-72.3h21.4c7,0,12.7,5.7,12.7,12.7l0,0c0,7,5.7,12.7,12.7,12.7h21.4v47H532z"/>
	</g>
	<g>
		<g>
			
				<rect x="431.2" y="336.8" transform="matrix(6.123234e-17 -1 1 6.123234e-17 91.7153 810.1112)" class="st8" width="39.4" height="44.7"/>
			
				<rect x="435.8" y="342.1" transform="matrix(6.123234e-17 -1 1 6.123234e-17 91.7153 810.1111)" class="st11" width="30.2" height="34.3"/>
		</g>
		<g>
			
				<rect x="431.2" y="385.7" transform="matrix(-1.836970e-16 1 -1 -1.836970e-16 858.5738 -42.8908)" class="st8" width="39" height="44.4"/>
			
				<rect x="434" y="388.4" transform="matrix(-1.836970e-16 1 -1 -1.836970e-16 858.5737 -42.8908)" class="st10" width="33.5" height="38.9"/>
			
				<rect x="438.1" y="392.4" transform="matrix(-1.836970e-16 1 -1 -1.836970e-16 858.0938 -42.4108)" class="st11" width="24.3" height="30.9"/>
			
				<rect x="441.9" y="396.6" transform="matrix(-1.836970e-16 1 -1 -1.836970e-16 858.5204 -42.8374)" class="st8" width="17.6" height="22.4"/>
		</g>
		<g>
			
				<rect x="432.3" y="293" transform="matrix(6.123234e-17 -1 1 6.123234e-17 135.635 766.263)" class="st9" width="37.3" height="44.6"/>
			
				<rect x="434.7" y="295.4" transform="matrix(6.123234e-17 -1 1 6.123234e-17 135.6349 766.2629)" class="st8" width="32.4" height="39.8"/>
			
				<rect x="439.2" y="298.9" transform="matrix(6.123234e-17 -1 1 6.123234e-17 136.0594 766.6873)" class="st11" width="24.3" height="32.8"/>
			
				<rect x="439.2" y="298.9" transform="matrix(6.123234e-17 -1 1 6.123234e-17 136.0594 766.6873)" class="st10" width="24.3" height="32.8"/>
		</g>
	</g>
	<g>
		<g>
			
				<rect x="668.9" y="336.5" transform="matrix(6.123234e-17 -1 1 6.123234e-17 329.7318 1047.4303)" class="st10" width="39.4" height="44.7"/>
			
				<rect x="673.5" y="341.7" transform="matrix(6.123234e-17 -1 1 6.123234e-17 329.7318 1047.4303)" class="st8" width="30.2" height="34.3"/>
			
				<rect x="679.3" y="347.1" transform="matrix(6.123234e-17 -1 1 6.123234e-17 330.1262 1047.8247)" class="st9" width="19.3" height="23.5"/>
		</g>
		<g>
			
				<rect x="668.9" y="385.3" transform="matrix(-1.836970e-16 1 -1 -1.836970e-16 1095.8928 -280.9072)" class="st8" width="39" height="44.4"/>
			
				<rect x="671.7" y="388" transform="matrix(-1.836970e-16 1 -1 -1.836970e-16 1095.8928 -280.9072)" class="st10" width="33.5" height="38.9"/>
			
				<rect x="676.7" y="393.2" transform="matrix(-1.836970e-16 1 -1 -1.836970e-16 1095.4128 -280.4272)" class="st11" width="22.4" height="28.5"/>
		</g>
		<g>
			
				<rect x="669.9" y="292.6" transform="matrix(6.123234e-17 -1 1 6.123234e-17 373.6514 1003.582)" class="st9" width="37.3" height="44.6"/>
			
				<rect x="674.4" y="297.5" transform="matrix(6.123234e-17 -1 1 6.123234e-17 373.6514 1003.582)" class="st8" width="28.4" height="34.9"/>
		</g>
	</g>
	<g>
		<g>
			<polygon class="st8" points="1095,445.5 1095,357.1 1268.8,332.5 1268.8,445.5 			"/>
			<polygon class="st10" points="1098.8,438.7 1098.8,363.4 1262.6,342 1262.6,436.9 			"/>
			<polygon class="st11" points="1103.7,429.4 1103.7,372.1 1250.1,354.4 1250.1,425.5 			"/>
		</g>
		<g>
			<polygon class="st9" points="1269.3,289.9 1197.7,303.9 1197.7,151.7 1269.3,122.8 			"/>
			<polygon class="st8" points="1264.1,283.5 1202,296.2 1202,156.8 1264.1,132.3 			"/>
			<polygon class="st11" points="1255.8,275.8 1209.2,285.8 1209.2,165.3 1255.8,147.6 			"/>
			<polygon class="st9" points="1261.8,281.6 1203.8,293.6 1203.8,158.6 1261.8,135.9 			"/>
			<polygon class="st11" points="1256.8,273 1208.1,283.7 1208.1,166 1256.8,147.5 			"/>
			<polygon class="st8" points="1248.9,262.3 1215.4,270.2 1215.4,175.1 1248.9,162.9 			"/>
			<path class="st10" d="M1243.6,212.8c0,21.1-5.4,39.6-11.9,41.3c-6.4,1.6-11.5-13.7-11.5-34.2c0-20.5,5.1-38.9,11.5-41.1
				C1238.2,176.4,1243.6,191.6,1243.6,212.8z"/>
		</g>
		<g>
			<polygon class="st9" points="1095.1,323.9 1095.1,193.2 1179.6,159 1179.6,307.4 			"/>
			<polygon class="st11" points="1102.4,310.4 1102.4,202.4 1170.4,176.2 1170.4,295.8 			"/>
			<polygon class="st8" points="1109.6,294.3 1109.6,214.1 1160.5,195.6 1160.5,282.3 			"/>
		</g>
	</g>
	<rect x="718.3" y="354.9" class="st11" width="14.6" height="10.9"/>
	<rect x="646.6" y="309.5" class="st11" width="14.6" height="10.9"/>
	<rect x="444.1" y="437" class="st11" width="14.6" height="10.9"/>
	<rect x="478.7" y="354.9" class="st11" width="14.6" height="10.9"/>
	<rect x="407.7" y="309.5" class="st11" width="14.6" height="10.9"/>
	<rect x="796.8" y="463.5" class="st11" width="14.6" height="10.9"/>
	<polygon class="st11" points="1185.3,475.4 1167.6,474.4 1167.6,463.5 1185.3,463.5 	"/>
	<polygon class="st11" points="868.1,313.9 856.6,317.1 856.6,306.2 868.1,303.1 	"/>
	<polygon class="st11" points="1020.8,408.8 1009.4,409.9 1009.4,399 1020.8,398 	"/>
	<polygon class="st11" points="1140.8,337.9 1129.3,340 1129.3,329.2 1140.8,327.1 	"/>
	<polygon class="st11" points="1295.8,204.7 1284.4,209.9 1284.4,199 1295.8,193.8 	"/>
	<rect x="678.3" y="437.5" class="st11" width="21.4" height="10.9"/>
	<rect x="316.4" y="453.3" class="st11" width="21.4" height="10.9"/>
	<rect x="188.4" y="453.3" class="st11" width="21.4" height="10.9"/>
	<polygon class="st11" points="32.5,479.8 11.1,480.9 11.1,470 32.5,468.9 	"/>
	<path class="st8" d="M65.3,185l-2.1-0.3c-2.5-0.4-4.2-2.8-3.8-5.4l0.9-5.3c0.4-2.5,2.8-4.2,5.4-3.8l2.1,0.3
		c2.5,0.4,4.2,2.8,3.8,5.4l-0.9,5.3C70.3,183.8,67.9,185.5,65.3,185z"/>
	<path class="st11" d="M72.3,187.3h-2.1c-2.6,0-4.7-2.1-4.7-4.7v-5.4c0-2.6,2.1-4.7,4.7-4.7h2.1c2.6,0,4.7,2.1,4.7,4.7v5.4
		C76.9,185.3,74.9,187.3,72.3,187.3z"/>
	<path class="st8" d="M1068.8,187.2l2.1-0.3c2.5-0.4,4.2-2.8,3.8-5.4l-0.9-5.3c-0.4-2.5-2.8-4.2-5.4-3.8l-2.1,0.3
		c-2.5,0.4-4.2,2.8-3.8,5.4l0.9,5.3C1063.8,186,1066.2,187.7,1068.8,187.2z"/>
	<path class="st11" d="M1061.8,189.5h2.1c2.6,0,4.7-2.1,4.7-4.7v-5.4c0-2.6-2.1-4.7-4.7-4.7h-2.1c-2.6,0-4.7,2.1-4.7,4.7v5.4
		C1057.2,187.5,1059.2,189.5,1061.8,189.5z"/>
	<path class="st8" d="M700.7,238.9h1.3c1.5,0,2.8-1.3,2.8-2.8v-3.3c0-1.5-1.3-2.8-2.8-2.8h-1.3c-1.5,0-2.8,1.3-2.8,2.8v3.3
		C697.9,237.6,699.2,238.9,700.7,238.9z"/>
	<path class="st11" d="M698.7,240.2h1.3c1.5,0,2.8-1.3,2.8-2.8v-3.3c0-1.5-1.3-2.8-2.8-2.8h-1.3c-1.5,0-2.8,1.3-2.8,2.8v3.3
		C695.9,238.9,697.1,240.2,698.7,240.2z"/>
</g>
<g id="Layer_1">
	
		<radialGradient id="SVGID_00000158016274297267833370000011144043792457271220_" cx="690.0782" cy="384.8048" r="212.3043" gradientUnits="userSpaceOnUse">
		<stop  offset="0" style="stop-color:#FFFFFF"/>
		<stop  offset="0.9385" style="stop-color:#000000"/>
	</radialGradient>
	
		<rect x="0" y="0" style="opacity:0.42;fill:url(#SVGID_00000158016274297267833370000011144043792457271220_);" width="1400" height="765.6"/>
</g>
<g id="Layer_11">
	<path class="st11" d="M0,0v627.8h353.9V312.5c0-124,95-224.5,212.3-224.5s212.3,100.5,212.3,224.5v315.3h506.7V0H0z"/>
	<path class="st38" d="M0,0v627.8h341.6V312.5c0-124,100.5-224.5,224.5-224.5s224.5,100.5,224.5,224.5v315.3H1400v-41.5V0H0z"/>
	<path class="st20" d="M310,613.9C306.7,305.4,190.4,57.5,47.4,57.5c-16.2,0-32,3.2-47.4,9.3v547.1L310,613.9z"/>
	<path class="st20" d="M1096.9,57.5c-143,0-259.2,247.9-262.6,556.4l525.1,0C1356.1,305.4,1239.8,57.5,1096.9,57.5z"/>
	<rect x="0" y="614" class="st39" width="341.6" height="13.7"/>
	<rect x="341.6" y="614" class="st40" width="12.2" height="13.7"/>
	<rect x="790.6" y="614" class="st39" width="609.4" height="13.7"/>
	
		<rect x="778.4" y="614" transform="matrix(-1 -1.224647e-16 1.224647e-16 -1 1568.991 1241.7893)" class="st40" width="12.2" height="13.7"/>
</g>
<g id="Layer_12">
	<g>
		<rect x="121.7" y="0" class="st41" width="4.5" height="407.5"/>
	</g>
	<g>
		<rect x="218.2" y="0" class="st41" width="4.5" height="407.5"/>
	</g>
	<rect x="98.1" y="204.3" class="st8" width="155.5" height="316.2"/>
	<g>
		<g>
			<rect x="92.6" y="197.4" class="st9" width="155.5" height="316.2"/>
			<rect x="109.6" y="216.7" class="st11" width="121.6" height="277.7"/>
			<rect x="129.6" y="238" class="st8" width="81.5" height="237.9"/>
		</g>
	</g>
	<g class="st42">
		<g>
			<g>
				<rect x="92.6" y="647.2" class="st9" width="155.5" height="88.2"/>
				<rect x="109.6" y="652.5" class="st11" width="121.6" height="77.5"/>
				<rect x="129.6" y="657.7" class="st8" width="81.5" height="66.4"/>
			</g>
		</g>
	</g>
	<g>
		<g>
			<rect x="132" y="0" class="st39" width="5.5" height="73.9"/>
		</g>
		
			<rect x="123.9" y="54.2" transform="matrix(0.7071 -0.7071 0.7071 0.7071 -18.2303 119.165)" class="st39" width="21.6" height="54.8"/>
	</g>
	<g>
		<g>
			
				<rect x="1222.3" y="0" transform="matrix(-1 -1.224647e-16 1.224647e-16 -1 2450.0481 73.9057)" class="st39" width="5.5" height="73.9"/>
		</g>
		
			<rect x="1214.2" y="54.2" transform="matrix(-0.7071 -0.7071 0.7071 -0.7071 2033.5552 1005.5031)" class="st39" width="21.6" height="54.8"/>
		<g>
			
				<rect x="1106.9" y="0" transform="matrix(-1 -1.224647e-16 1.224647e-16 -1 2219.1653 73.9057)" class="st39" width="5.5" height="73.9"/>
		</g>
		
			<rect x="1098.8" y="54.2" transform="matrix(-0.7071 -0.7071 0.7071 -0.7071 1836.4844 923.8737)" class="st39" width="21.6" height="54.8"/>
		<g>
			
				<rect x="1001.9" y="0" transform="matrix(-1 -1.224647e-16 1.224647e-16 -1 2009.2717 73.9057)" class="st39" width="5.5" height="73.9"/>
		</g>
		
			<rect x="993.8" y="54.2" transform="matrix(-0.7071 -0.7071 0.7071 -0.7071 1657.329 849.6651)" class="st39" width="21.6" height="54.8"/>
	</g>
	<rect x="157" y="525.8" class="st11" width="37.8" height="19.2"/>
	<g>
		<rect x="887.8" y="0" class="st41" width="4.5" height="407.5"/>
	</g>
	<g>
		<rect x="1299.2" y="0" class="st41" width="4.5" height="407.5"/>
	</g>
	<rect x="864.2" y="204.3" class="st8" width="470.3" height="347.6"/>
	<g>
		<g>
			<rect x="858.7" y="197.4" class="st9" width="470.3" height="347.6"/>
			<rect x="875.7" y="216.7" class="st8" width="436.4" height="309.2"/>
			<rect x="895.7" y="238" class="st11" width="396.4" height="269.4"/>
		</g>
	</g>
	<g class="st42">
		<g>
			<g>
				<rect x="858.7" y="647.2" class="st9" width="470.3" height="88.2"/>
				<rect x="875.7" y="652.5" class="st11" width="436.4" height="77.5"/>
				<rect x="895.7" y="657.7" class="st8" width="396.4" height="66.4"/>
			</g>
		</g>
	</g>
	<rect x="1080.5" y="557.3" class="st11" width="37.8" height="19.2"/>
	<line class="st39" x1="385.6" y1="626.8" x2="409.7" y2="626.8"/>
	<line class="st39" x1="409.7" y1="508.7" x2="385.6" y2="508.7"/>
	<line class="st39" x1="409.7" y1="626.8" x2="433.8" y2="626.8"/>
	<line class="st39" x1="433.8" y1="508.7" x2="409.7" y2="508.7"/>
	<g>
		<g>
			<rect x="362.1" y="508.7" class="st11" width="70" height="118.8"/>
			<rect x="362.1" y="508.7" class="st38" width="59.1" height="118.8"/>
		</g>
		<g>
			<path class="st10" d="M409.3,478.1c0,11.5-3.9,19.2-9.7,23.2v7.4h-21.3v-7.4c-5.8-4-9.7-11.7-9.7-23.2c0-12,4.2-25.1,10.4-32.2
				l-3.2-29h26.4l-3.2,29C405,453,409.3,466.1,409.3,478.1z"/>
			<path class="st11" d="M401.5,478.1c0,11.5-3.9,19.2-9.7,23.2v7.4h-13.6v-7.4c-5.8-4-9.7-11.7-9.7-23.2c0-12,4.2-25.1,10.4-32.2
				l-3.2-29h18.6l-3.2,29C397.3,453,401.5,466.1,401.5,478.1z"/>
			<path class="st8" d="M418.7,457.3H414v16c-2.2,4.9-3.7,15.7-3.7,23.4c0,5.6,0.8,8.4,2.1,9.8v2.2h7.9v-2.2
				c1.3-1.4,2.1-4.2,2.1-9.8c0-7.7-1.5-18.5-3.7-23.4V457.3z"/>
		</g>
		<polygon class="st11" points="415.8,498.1 397.1,498.1 401.4,508.7 420.1,508.7 		"/>
	</g>
	<g class="st42">
		<g>
			<rect x="362.1" y="627.5" class="st11" width="70" height="73.8"/>
			<rect x="362.1" y="627.5" class="st38" width="59.1" height="73.8"/>
		</g>
		<g>
			<path class="st9" d="M409.3,720.3c0-7.2-3.9-12-9.7-14.4v-4.6h-21.3v4.6c-5.8,2.5-9.7,7.2-9.7,14.4c0,7.5,4.2,15.6,10.4,20
				l-3.2,18h26.4l-3.2-18C405,735.9,409.3,727.7,409.3,720.3z"/>
			<path class="st33" d="M401.5,720.3c0-7.2-3.9-12-9.7-14.4v-4.6h-13.6v4.6c-5.8,2.5-9.7,7.2-9.7,14.4c0,7.5,4.2,15.6,10.4,20
				l-3.2,18h18.6l-3.2-18C397.3,735.9,401.5,727.7,401.5,720.3z"/>
			<path class="st8" d="M418.7,733.2H414v-9.9c-2.2-3-3.7-9.7-3.7-14.5c0-3.5,0.8-5.2,2.1-6.1v-1.4h7.9v1.4c1.3,0.9,2.1,2.6,2.1,6.1
				c0,4.8-1.5,11.5-3.7,14.5V733.2z"/>
		</g>
		<polygon class="st11" points="415.8,707.9 397.1,707.9 401.4,701.3 420.1,701.3 		"/>
	</g>
	<path class="st8" d="M354.9,72.3h-9.4c-1.1,0-1.9-0.9-1.9-1.9V50.5c0-1.1,0.9-1.9,1.9-1.9h9.4c1.1,0,1.9,0.9,1.9,1.9v19.8
		C356.8,71.4,355.9,72.3,354.9,72.3z"/>
	<path class="st11" d="M359.3,75.6h-9.4c-1.1,0-1.9-0.9-1.9-1.9V53.9c0-1.1,0.9-1.9,1.9-1.9h9.4c1.1,0,1.9,0.9,1.9,1.9v19.8
		C361.2,74.8,360.3,75.6,359.3,75.6z"/>
	<path class="st8" d="M788,73.9h9.4c1.1,0,1.9-0.9,1.9-1.9V52.2c0-1.1-0.9-1.9-1.9-1.9H788c-1.1,0-1.9,0.9-1.9,1.9V72
		C786.1,73.1,786.9,73.9,788,73.9z"/>
	<path class="st11" d="M783.6,77.3h9.4c1.1,0,1.9-0.9,1.9-1.9V55.6c0-1.1-0.9-1.9-1.9-1.9h-9.4c-1.1,0-1.9,0.9-1.9,1.9v19.8
		C781.7,76.5,782.6,77.3,783.6,77.3z"/>
</g>
<g id="Layer_8">
	
		<radialGradient id="SVGID_00000167365853932777115740000002872584146871062431_" cx="622.3098" cy="44.9813" r="952.2974" gradientUnits="userSpaceOnUse">
		<stop  offset="0" style="stop-color:#FFFFFF"/>
		<stop  offset="0.9385" style="stop-color:#000000"/>
	</radialGradient>
	
		<rect x="0" y="0" style="opacity:0.31;fill:url(#SVGID_00000167365853932777115740000002872584146871062431_);" width="1400" height="765.6"/>
</g>
<g id="Layer_13">
</g>
</svg>
