<?xml version="1.0" encoding="utf-8"?>
<!-- Generator: Adobe Illustrator 28.3.0, SVG Export Plug-In . SVG Version: 6.00 Build 0)  -->
<svg version="1.1" xmlns="http://www.w3.org/2000/svg" xmlns:xlink="http://www.w3.org/1999/xlink" x="0px" y="0px"
	 viewBox="0 0 1570.1 730" style="enable-background:new 0 0 1570.1 730;" xml:space="preserve">
<style type="text/css">
	.st0{fill:url(#SVGID_1_);}
	.st1{fill:#9B8579;}
	.st2{opacity:0.28;fill:url(#SVGID_00000083792887745775911600000016011011424237882029_);}
	.st3{opacity:0.21;fill:url(#SVGID_00000005981908962426925880000011196159256856368775_);}
	.st4{opacity:0.21;fill:url(#SVGID_00000150804814903823299700000013949360689638455220_);}
	.st5{opacity:0.28;fill:url(#SVGID_00000024700935068449848740000015977941218535181995_);}
	.st6{opacity:0.28;fill:url(#SVGID_00000032630278005982894890000002459606789622518667_);}
	.st7{opacity:0.2;}
	.st8{fill:#8A3C33;}
	.st9{fill:#F7836C;}
	.st10{fill:#F7BE8F;}
	.st11{fill:#FFFFFF;}
	.st12{fill:#FBD5A2;}
	.st13{fill:#65B0B8;}
	.st14{fill:#5999A2;}
	.st15{fill:#FEEDC5;}
	.st16{fill:#5C2A21;}
	.st17{fill:#8A6763;}
	.st18{opacity:0.26;}
	.st19{opacity:0.54;fill:#FEEDC5;}
	.st20{fill:url(#SVGID_00000159469993359170750090000006877799618447950494_);}
	.st21{fill:url(#SVGID_00000095328905427306542300000011229536423584781711_);}
	.st22{fill:url(#SVGID_00000140713976450946160720000017010491797426101419_);}
	.st23{fill:url(#SVGID_00000089536007736582694240000000177720910773147315_);}
	.st24{fill:url(#SVGID_00000072971064449982768720000010079722429743416961_);}
	.st25{fill:url(#SVGID_00000025410480972389658740000007988702827332182913_);}
	.st26{fill:url(#SVGID_00000037691427962383795950000018130289157747808181_);}
	.st27{fill:url(#SVGID_00000052809359626310010870000012854636757754085785_);}
	.st28{fill:#78783F;}
	.st29{fill:#B9E6E7;}
	.st30{opacity:0.23;}
	.st31{opacity:0.19;}
	.st32{fill:#FBBE76;}
	.st33{fill:#808182;}
	.st34{fill:#606061;}
	.st35{fill:#B2DAF2;}
	.st36{opacity:0.42;fill:url(#SVGID_00000121985973204636815610000003734738124082271105_);}
	.st37{fill:#C7C1C5;}
	.st38{fill:#2B2829;}
	.st39{fill:#423D3E;}
	.st40{fill:#9C979A;}
	.st41{opacity:0.16;}
	.st42{fill:#B52F37;}
	.st43{fill:#E03C45;}
	.st44{fill:#726658;}
	.st45{opacity:0.31;fill:url(#SVGID_00000175289696687475375660000013047315093679216523_);}
</style>
<g id="Layer_3">
	<linearGradient id="SVGID_1_" gradientUnits="userSpaceOnUse" x1="785.036" y1="728.0521" x2="785.036" y2="544.3373">
		<stop  offset="0" style="stop-color:#91AFCF"/>
		<stop  offset="1" style="stop-color:#756B6B"/>
	</linearGradient>
	<rect x="0" y="465.2" class="st0" width="1570.1" height="264.8"/>
	<rect x="0" y="0" class="st1" width="1570.1" height="153.7"/>
</g>
<g id="Layer_10">
	
		<linearGradient id="SVGID_00000065788610822362050750000001383972207966045847_" gradientUnits="userSpaceOnUse" x1="826.7642" y1="475.6428" x2="826.7642" y2="619.3241">
		<stop  offset="0" style="stop-color:#FFFFFF"/>
		<stop  offset="1" style="stop-color:#000000"/>
	</linearGradient>
	
		<rect x="787" y="488.5" style="opacity:0.28;fill:url(#SVGID_00000065788610822362050750000001383972207966045847_);" width="79.5" height="134.5"/>
	
		<linearGradient id="SVGID_00000090271354304768663490000016835378120366594445_" gradientUnits="userSpaceOnUse" x1="1273.7347" y1="584.9047" x2="1273.7347" y2="726.3802">
		<stop  offset="0" style="stop-color:#FFFFFF"/>
		<stop  offset="1" style="stop-color:#000000"/>
	</linearGradient>
	
		<rect x="977.4" y="597.6" style="opacity:0.21;fill:url(#SVGID_00000090271354304768663490000016835378120366594445_);" width="592.7" height="132.4"/>
	
		<linearGradient id="SVGID_00000062899489721415394060000005786125493354642575_" gradientUnits="userSpaceOnUse" x1="286.3304" y1="584.9047" x2="286.3304" y2="726.3802">
		<stop  offset="0" style="stop-color:#FFFFFF"/>
		<stop  offset="1" style="stop-color:#000000"/>
	</linearGradient>
	
		<rect x="0" y="597.6" style="opacity:0.21;fill:url(#SVGID_00000062899489721415394060000005786125493354642575_);" width="572.7" height="132.4"/>
	
		<linearGradient id="SVGID_00000015344126739046482400000013888151621953408640_" gradientUnits="userSpaceOnUse" x1="677.6748" y1="475.6428" x2="677.6748" y2="619.3241">
		<stop  offset="0" style="stop-color:#FFFFFF"/>
		<stop  offset="1" style="stop-color:#000000"/>
	</linearGradient>
	
		<rect x="637.9" y="488.5" style="opacity:0.28;fill:url(#SVGID_00000015344126739046482400000013888151621953408640_);" width="79.5" height="134.5"/>
	
		<linearGradient id="SVGID_00000182530752621039048990000016219304125942036149_" gradientUnits="userSpaceOnUse" x1="898.5158" y1="475.6428" x2="898.5158" y2="619.3241">
		<stop  offset="0" style="stop-color:#FFFFFF"/>
		<stop  offset="1" style="stop-color:#000000"/>
	</linearGradient>
	
		<rect x="886.5" y="488.5" style="opacity:0.28;fill:url(#SVGID_00000182530752621039048990000016219304125942036149_);" width="24.1" height="134.5"/>
</g>
<g id="Layer_9">
	<g class="st7">
		<polygon class="st8" points="1045.9,525.4 972.7,523.4 972.7,580.6 1045.9,587.4 		"/>
		<polygon class="st8" points="585.4,517.7 505.4,521.5 505.4,589.7 585.4,577.9 		"/>
		
			<rect x="885.3" y="536.2" transform="matrix(-1.836970e-16 1 -1 -1.836970e-16 1451.76 -336.8005)" class="st8" width="18" height="42.6"/>
		
			<rect x="885.2" y="514.1" transform="matrix(6.123234e-17 -1 1 6.123234e-17 358.8296 1429.3857)" class="st8" width="17.8" height="42.3"/>
		
			<rect x="885.8" y="556.2" transform="matrix(-1.836970e-16 1 -1 -1.836970e-16 1471.8234 -316.8052)" class="st8" width="17" height="42.6"/>
		
			<rect x="657.9" y="535.7" transform="matrix(-1.836970e-16 1 -1 -1.836970e-16 1223.9797 -109.8776)" class="st8" width="18" height="42.6"/>
		
			<rect x="657.9" y="513.7" transform="matrix(6.123234e-17 -1 1 6.123234e-17 131.9068 1201.6055)" class="st8" width="17.8" height="42.3"/>
		
			<rect x="658.4" y="555.8" transform="matrix(-1.836970e-16 1 -1 -1.836970e-16 1244.0431 -89.8823)" class="st9" width="17" height="42.6"/>
		<g>
			<polygon class="st8" points="1041.7,526.6 968.6,524.6 968.6,581.8 1041.7,588.6 			"/>
			<polygon class="st10" points="1036.1,529.2 973.4,527.3 973.4,579.7 1036.1,585.3 			"/>
			<polygon class="st11" points="1027,532.4 981.5,530.9 981.5,576.1 1027,580 			"/>
			<polygon class="st11" points="1027,532.4 981.5,530.9 981.5,576.1 1027,580 			"/>
			<polygon class="st8" points="1020.4,536.9 987.5,535.6 987.5,573 1020.4,575.7 			"/>
		</g>
		<g>
			<polygon class="st9" points="582.7,519.2 502.7,523 502.7,591.2 582.7,579.3 			"/>
			<polygon class="st8" points="578,522.5 508.5,526.1 508.5,586.9 578,577 			"/>
			<polygon class="st11" points="570,526.9 518,530 518,580.1 570,573 			"/>
			<polygon class="st9" points="575.8,523.6 511,527.1 511,585.3 575.8,576.1 			"/>
			<polygon class="st11" points="571.1,527.9 516.6,531.2 516.6,580.1 571.1,572.7 			"/>
			<polygon class="st8" points="563.2,533.8 525.8,536.3 525.8,573.2 563.2,568.4 			"/>
			<path class="st10" d="M557.8,551.5c0-9.3-5.7-11.5-12.9-10.9c-7.3,0.6-13.4,3.9-13.4,13.5s6,13.2,13.4,12.3
				C552.1,565.6,557.8,560.8,557.8,551.5z"/>
		</g>
		<g>
			<rect x="712.7" y="513.2" class="st8" width="132" height="91.1"/>
			<rect x="709" y="515.1" class="st9" width="132" height="91.1"/>
			<rect x="717.7" y="519.2" class="st8" width="114.7" height="82.9"/>
			<rect x="732" y="524.4" class="st11" width="86" height="71"/>
			<rect x="732" y="524.4" class="st11" width="86" height="71"/>
			<rect x="742.5" y="531.4" class="st8" width="65" height="58.3"/>
			<path class="st10" d="M742.5,531.4v33H763c6.7,0,12.1-2.6,12.1-5.8l0,0c0-3.2,5.4-5.8,12.1-5.8h20.4v-21.5H742.5z"/>
		</g>
		<g>
			<g>
				
					<rect x="656.2" y="536.7" transform="matrix(-1.836970e-16 1 -1 -1.836970e-16 1223.1871 -107.1702)" class="st8" width="18" height="42.6"/>
				
					<rect x="658.3" y="541.7" transform="matrix(-1.836970e-16 1 -1 -1.836970e-16 1223.1871 -107.1702)" class="st11" width="13.8" height="32.7"/>
			</g>
			<g>
				
					<rect x="656.1" y="514.7" transform="matrix(6.123234e-17 -1 1 6.123234e-17 129.1993 1200.813)" class="st8" width="17.8" height="42.3"/>
				
					<rect x="657.4" y="517.3" transform="matrix(6.123234e-17 -1 1 6.123234e-17 129.1993 1200.813)" class="st10" width="15.3" height="37.1"/>
				
					<rect x="659" y="521.1" transform="matrix(6.123234e-17 -1 1 6.123234e-17 128.7417 1200.3552)" class="st11" width="11.1" height="29.5"/>
				
					<rect x="660.9" y="525.1" transform="matrix(6.123234e-17 -1 1 6.123234e-17 129.1485 1200.7621)" class="st8" width="8" height="21.4"/>
			</g>
			<g>
				
					<rect x="656.7" y="556.8" transform="matrix(-1.836970e-16 1 -1 -1.836970e-16 1243.2505 -87.1749)" class="st9" width="17" height="42.6"/>
				
					<rect x="657.8" y="559.1" transform="matrix(-1.836970e-16 1 -1 -1.836970e-16 1243.2505 -87.1749)" class="st8" width="14.8" height="38"/>
				
					<rect x="660.1" y="562.4" transform="matrix(-1.836970e-16 1 -1 -1.836970e-16 1243.655 -87.5796)" class="st11" width="11.1" height="31.3"/>
				
					<rect x="660.1" y="562.4" transform="matrix(-1.836970e-16 1 -1 -1.836970e-16 1243.655 -87.5796)" class="st10" width="11.1" height="31.3"/>
			</g>
		</g>
		<g>
			<g>
				
					<rect x="882.8" y="536.9" transform="matrix(-1.836970e-16 1 -1 -1.836970e-16 1449.9473 -333.612)" class="st10" width="18" height="42.6"/>
				
					<rect x="884.9" y="541.8" transform="matrix(-1.836970e-16 1 -1 -1.836970e-16 1449.9471 -333.612)" class="st8" width="13.8" height="32.7"/>
				
					<rect x="887.8" y="547" transform="matrix(-1.836970e-16 1 -1 -1.836970e-16 1450.3234 -333.9881)" class="st9" width="8.8" height="22.4"/>
			</g>
			<g>
				
					<rect x="882.7" y="514.8" transform="matrix(6.123234e-17 -1 1 6.123234e-17 355.6411 1427.573)" class="st8" width="17.8" height="42.3"/>
				
					<rect x="884" y="517.4" transform="matrix(6.123234e-17 -1 1 6.123234e-17 355.6411 1427.5729)" class="st10" width="15.3" height="37.1"/>
				
					<rect x="886" y="522.4" transform="matrix(6.123234e-17 -1 1 6.123234e-17 355.1835 1427.1154)" class="st11" width="10.2" height="27.2"/>
			</g>
			<g>
				
					<rect x="883.3" y="556.9" transform="matrix(-1.836970e-16 1 -1 -1.836970e-16 1470.0106 -313.6168)" class="st9" width="17" height="42.6"/>
				
					<rect x="885.3" y="561.5" transform="matrix(-1.836970e-16 1 -1 -1.836970e-16 1470.0106 -313.6168)" class="st8" width="13" height="33.3"/>
			</g>
		</g>
	</g>
</g>
<g id="Layer_2">
	<path class="st12" d="M649.9,48.5c0,0,250.3,0,250.3,0c0,0,95.1-28.3,162.7-48.5h-633L649.9,48.5z"/>
	<polygon class="st13" points="325.4,135.6 616,190.5 616,459.5 325.4,494.4 	"/>
	<polygon class="st14" points="325.4,135.6 143.8,0 0,0 0,518.6 325.4,494.4 	"/>
	<polygon class="st13" points="1224.7,135.6 934,190.5 934,459.5 1224.7,494.4 	"/>
	<polygon class="st14" points="1406.2,0 1224.7,135.6 1224.7,494.4 1570.1,518.7 1570.1,0 	"/>
	<rect x="616" y="190.5" class="st14" width="318" height="269"/>
	<rect x="616" y="459.5" class="st12" width="318" height="33.8"/>
	<rect x="616" y="135.6" class="st12" width="318" height="54.9"/>
	<polygon class="st15" points="616,135.6 325.4,62.1 325.4,135.6 616,190.5 	"/>
	<polygon class="st10" points="325.4,135.6 325.4,62.1 268.4,0 143.8,0 	"/>
	<rect x="616" y="190.5" class="st8" width="318" height="3.5"/>
	<rect x="616" y="152.1" class="st8" width="318" height="3.5"/>
	<polygon class="st8" points="616,190.5 325.4,135.6 325.4,140.6 616,194 	"/>
	<polygon class="st8" points="616,152.1 325.4,78.5 325.4,86.6 616,155.6 	"/>
	<polygon class="st8" points="325.4,140.6 325.4,135.6 143.8,0 83.7,0 	"/>
	<rect x="616" y="201.5" class="st8" width="318" height="2.5"/>
	<rect x="616" y="161.7" class="st8" width="318" height="10.8"/>
	<polygon class="st8" points="616,161.7 616,172.5 325.4,111.3 325.4,93.6 	"/>
	<rect x="616" y="464.6" class="st8" width="318" height="2.5"/>
	<polygon class="st10" points="1224.7,503.2 934,493.2 934,459.5 1224.7,469.5 	"/>
	<polygon class="st8" points="1224.7,474.6 1224.7,477.1 934,467.1 934,464.6 	"/>
	<polygon class="st15" points="1224.7,469.5 1224.7,503.2 1570.1,532.4 1570.1,490.9 	"/>
	<polygon class="st8" points="1224.7,474.6 1224.7,477.1 1570.1,498.5 1570.1,496 	"/>
	<polygon class="st10" points="325.4,503.2 616,493.2 616,459.5 325.4,469.5 	"/>
	<polygon class="st8" points="325.4,474.6 325.4,477.1 616,467.1 616,464.6 	"/>
	<polygon class="st15" points="325.4,469.5 0,490.8 0,532.4 325.4,503.2 	"/>
	<polygon class="st8" points="325.4,474.6 0,496 0,498.5 325.4,477.1 	"/>
	<rect x="616" y="492.6" class="st16" width="318" height="2.5"/>
	<polygon class="st8" points="1224.7,502.7 1224.7,505.1 934,495.1 934,492.6 	"/>
	<polygon class="st8" points="1224.7,502.7 1224.7,505.1 1570.1,534.3 1570.1,531.8 	"/>
	<polygon class="st16" points="325.4,502.7 325.4,505.1 616,495.1 616,492.7 	"/>
	<polygon class="st8" points="325.4,502.7 0,531.8 0,534.3 325.4,505.1 	"/>
	<rect x="616" y="208.5" class="st8" width="318" height="1.5"/>
	<polygon class="st8" points="616,201.5 325.4,151.6 325.4,155.6 616,204 	"/>
	<polygon class="st8" points="616,208.5 325.4,158.6 325.4,161.6 616,210 	"/>
	<polygon class="st8" points="325.4,155.6 325.4,151.6 64.5,0 50.2,0 	"/>
	<polygon class="st8" points="325.4,161.6 325.4,158.6 34.1,0 27,0 	"/>
	<polygon class="st8" points="325.4,86.6 325.4,78.5 246.8,0 235.3,0 	"/>
	<polygon class="st8" points="325.4,111.3 325.4,93.6 223.8,0 195.9,0 	"/>
	<polygon class="st11" points="325.4,135.6 325.4,130.5 155.5,0 143.8,0 	"/>
	<polygon class="st10" points="325.4,135.6 616,190.5 616,187.6 325.4,130.5 	"/>
	<g>
		<polygon class="st15" points="934,135.6 1224.7,62.1 1224.7,135.6 934,190.5 		"/>
		<polygon class="st10" points="1224.7,62.1 1224.7,135.6 1406.2,0 1281.7,0 		"/>
		<polygon class="st8" points="934,190.5 1224.7,135.6 1224.7,140.6 934,194 		"/>
		<polygon class="st8" points="934,152.1 1224.7,78.5 1224.7,86.6 934,155.6 		"/>
		<polygon class="st8" points="1224.7,135.6 1224.7,140.6 1419.6,0 1406.2,0 		"/>
		<polygon class="st8" points="934,161.7 934,172.5 1224.7,111.3 1224.7,93.6 		"/>
		<polygon class="st8" points="934,201.5 1224.7,151.6 1224.7,155.6 934,204 		"/>
		<polygon class="st8" points="934,208.5 1224.7,158.6 1224.7,161.6 934,210 		"/>
		<polygon class="st8" points="1224.7,151.6 1224.7,155.6 1516.3,0 1501.4,0 		"/>
		<polygon class="st8" points="1224.7,158.6 1224.7,161.6 1540.9,0 1533.3,0 		"/>
		<polygon class="st8" points="1224.7,78.5 1224.7,86.6 1314.8,0 1303.3,0 		"/>
		<polygon class="st8" points="1224.7,93.6 1224.7,111.3 1354.2,0 1326.3,0 		"/>
		<rect x="616" y="161.7" class="st8" width="318" height="10.8"/>
		<polygon class="st8" points="616,161.7 616,172.5 325.4,111.3 325.4,93.6 		"/>
		<polygon class="st8" points="325.4,111.3 325.4,93.6 223.8,0 195.9,0 		"/>
		<polygon class="st8" points="934,161.7 934,172.5 1224.7,111.3 1224.7,93.6 		"/>
		<polygon class="st8" points="1224.7,93.6 1224.7,111.3 1354.2,0 1326.3,0 		"/>
		<polygon class="st11" points="1224.7,130.5 1224.7,135.6 1406.2,0 1394.6,0 		"/>
		<polygon class="st10" points="1224.7,135.6 934,190.5 934,187.6 1224.7,130.5 		"/>
	</g>
	<rect x="616.1" y="187.6" class="st11" width="318" height="2.9"/>
	<g>
		<rect x="649.9" y="48.5" class="st8" width="250.3" height="10.8"/>
		<polygon class="st8" points="649.9,59.2 649.9,48.5 487.2,0 428.4,0 		"/>
		<polygon class="st8" points="900.2,48.5 900.2,59.2 1121.7,0 1062.9,0 		"/>
	</g>
	<g>
		<rect x="641.2" y="475.3" class="st17" width="53.8" height="8.1"/>
		<rect x="748.2" y="475.3" class="st17" width="53.8" height="8.1"/>
		<rect x="855.2" y="475.3" class="st17" width="53.8" height="8.1"/>
	</g>
	<g>
		<polygon class="st17" points="393.3,491.6 341.4,493.2 341.4,485.1 393.3,483.4 		"/>
		<polygon class="st17" points="496.7,488.3 444.7,489.9 444.7,481.8 496.7,480.1 		"/>
		<polygon class="st17" points="600.1,485 548.1,486.6 548.1,478.5 600.1,476.8 		"/>
	</g>
	<g>
		<polygon class="st17" points="101.8,506 0,510.2 0,518.3 101.8,514.1 		"/>
		<polygon class="st17" points="205,505 153.2,509.6 153.2,501.5 205,496.9 		"/>
		<polygon class="st17" points="308.1,495.8 256.3,500.4 256.3,492.3 308.1,487.7 		"/>
	</g>
	<g>
		<g>
			<polygon class="st17" points="1156.8,491.6 1208.7,493.2 1208.7,485.1 1156.8,483.4 			"/>
			<polygon class="st17" points="1053.4,488.3 1105.3,489.9 1105.3,481.8 1053.4,480.1 			"/>
			<polygon class="st17" points="950,485 1001.9,486.6 1001.9,478.5 950,476.8 			"/>
		</g>
		<g>
			<polygon class="st17" points="1448.2,506 1448.2,514.1 1570.1,518.4 1570.1,510.3 			"/>
			<polygon class="st17" points="1345.1,505 1396.9,509.6 1396.9,501.5 1345.1,496.9 			"/>
			<polygon class="st17" points="1242,495.8 1293.8,500.4 1293.8,492.3 1242,487.7 			"/>
		</g>
	</g>
	<polygon class="st11" points="1224.7,469.5 934,459.5 616,459.5 325.4,469.5 0,490.8 0,496 325.4,474.6 616,464.6 934,464.6 
		1224.7,474.6 1570.1,496 1570.1,490.9 	"/>
	<rect x="616" y="129.6" class="st8" width="318" height="6"/>
	<polygon class="st8" points="1224.7,53.9 934,129.6 934,135.6 1224.7,62.1 1281.7,0 1270.8,0 	"/>
	<polygon class="st8" points="325.3,62.1 616,135.6 616,129.6 325.3,53.9 279.2,0 268.4,0 	"/>
</g>
<g id="Layer_6">
	<g class="st18">
		<path class="st9" d="M671.6,524.1c-7.3,0.8-13.2,5.2-15.2,11c-0.8,2.2-2.8,3.6-5,3.6h-12.4l3.1-32h32v14.3
			C674.1,522.6,673.1,523.9,671.6,524.1z"/>
		<rect x="649.7" y="506.7" class="st16" width="27.1" height="4.1"/>
		<path class="st16" d="M649.3,524.1c-2.9,0.8-5.3,5.2-6.1,11c-0.3,2.2-1.7,3.6-2.5,3.6h-1.6l1.4-32h9.8v14.3
			C650.3,522.6,649.9,523.9,649.3,524.1z"/>
		<polygon class="st9" points="655.7,495.2 658.9,495.2 662.6,506.7 659.4,506.7 		"/>
		<rect x="651.9" y="495.2" class="st11" width="3.1" height="11.5"/>
		<polygon class="st11" points="638.5,495.2 641.6,495.2 645.3,506.7 642.2,506.7 		"/>
		<rect x="670.3" y="495.2" class="st9" width="3.1" height="11.5"/>
	</g>
	<g class="st18">
		<path class="st9" d="M873.8,524.1c7.3,0.8,13.2,5.2,15.2,11c0.8,2.2,2.8,3.6,5,3.6h12.4l-3.1-32h-32v14.3
			C871.3,522.6,872.4,523.9,873.8,524.1z"/>
		<rect x="868.6" y="506.7" class="st16" width="27.1" height="4.1"/>
		<path class="st16" d="M896.1,524.1c2.9,0.8,5.3,5.2,6.1,11c0.3,2.2,1.7,3.6,2.5,3.6h1.6l-1.4-32h-9.8v14.3
			C895.1,522.6,895.5,523.9,896.1,524.1z"/>
		<polygon class="st9" points="889.7,495.2 886.6,495.2 882.9,506.7 886,506.7 		"/>
		<rect x="890.4" y="495.2" class="st11" width="3.1" height="11.5"/>
		<polygon class="st11" points="906.9,495.2 903.8,495.2 900.1,506.7 903.2,506.7 		"/>
		<rect x="871.9" y="495.2" class="st9" width="3.1" height="11.5"/>
	</g>
	<path class="st19" d="M775,215.6c-75.9,0-137.6,108.7-139.3,243.9l278.7,0C912.6,324.2,850.9,215.6,775,215.6z"/>
	<path class="st19" d="M602.3,455.8c0-146.1-58.9-264.5-131.6-264.5S339.2,309.7,339.2,455.8c0,4.4,0.1,8.8,0.2,13.2l262.9-9.1
		C602.2,458.6,602.3,457.2,602.3,455.8z"/>
	<path class="st19" d="M298.8,407c0-182-60.7-329.5-135.6-329.5C120.9,77.4,34.9,124.6,0,198.6v292.3l296.2-19
		C297.9,450.8,298.8,429.2,298.8,407z"/>
	<path class="st19" d="M1387.1,68.5c-74.9,0-135.6,147.5-135.6,329.5c0,25.4,1.2,50.1,3.4,73.9l315.1,19V189.9
		C1532.3,115.8,1429.5,68.5,1387.1,68.5z"/>
	<path class="st19" d="M1085.6,189.8c-66.5,0-121.9,116.6-133.4,270.3l267.4,9.2C1209.7,311.1,1153.4,189.8,1085.6,189.8z"/>
	
		<radialGradient id="SVGID_00000160191744431976172490000017886579429398126746_" cx="783.7625" cy="304.0944" r="104.4642" gradientUnits="userSpaceOnUse">
		<stop  offset="0" style="stop-color:#FBB766"/>
		<stop  offset="1" style="stop-color:#000000"/>
	</radialGradient>
	
		<rect x="679.3" y="199.6" style="fill:url(#SVGID_00000160191744431976172490000017886579429398126746_);" width="208.9" height="208.9"/>
	
		<radialGradient id="SVGID_00000095318092031538365980000016008572690462170295_" cx="777.1376" cy="368.4873" r="104.4673" gradientTransform="matrix(0.4616 0 0 0.9716 646.5769 6.2789)" gradientUnits="userSpaceOnUse">
		<stop  offset="0" style="stop-color:#FBB766"/>
		<stop  offset="1" style="stop-color:#000000"/>
	</radialGradient>
	
		<rect x="957.1" y="262.8" style="fill:url(#SVGID_00000095318092031538365980000016008572690462170295_);" width="96.4" height="203"/>
	
		<radialGradient id="SVGID_00000007386960317713742970000005488192042733513636_" cx="-213.2768" cy="348.0787" r="104.4673" gradientTransform="matrix(0.4616 0 0 0.9716 646.5769 6.2789)" gradientUnits="userSpaceOnUse">
		<stop  offset="0" style="stop-color:#FBB766"/>
		<stop  offset="1" style="stop-color:#000000"/>
	</radialGradient>
	
		<rect x="499.9" y="243" style="fill:url(#SVGID_00000007386960317713742970000005488192042733513636_);" width="96.4" height="203"/>
	
		<radialGradient id="SVGID_00000049936602456828788310000008472638104553766840_" cx="-488.4038" cy="323.5141" r="113.3337" gradientTransform="matrix(0.4616 0 0 0.9716 646.5769 6.2789)" gradientUnits="userSpaceOnUse">
		<stop  offset="0" style="stop-color:#FBB766"/>
		<stop  offset="1" style="stop-color:#000000"/>
	</radialGradient>
	
		<rect x="368.8" y="210.5" style="fill:url(#SVGID_00000049936602456828788310000008472638104553766840_);" width="104.6" height="220.2"/>
	
		<radialGradient id="SVGID_00000068642858517090787740000006244284015777427337_" cx="-868.1248" cy="267.7081" r="122.3614" gradientTransform="matrix(0.4616 0 0 0.9716 646.5769 6.2789)" gradientUnits="userSpaceOnUse">
		<stop  offset="0" style="stop-color:#FBB766"/>
		<stop  offset="1" style="stop-color:#000000"/>
	</radialGradient>
	
		<rect x="189.4" y="147.5" style="fill:url(#SVGID_00000068642858517090787740000006244284015777427337_);" width="113" height="237.8"/>
	
		<radialGradient id="SVGID_00000002370554297915039290000014761131975060521862_" cx="1656.6868" cy="220.7951" r="122.3614" gradientTransform="matrix(0.4616 0 0 0.9716 646.5769 6.2789)" gradientUnits="userSpaceOnUse">
		<stop  offset="0" style="stop-color:#FBB766"/>
		<stop  offset="1" style="stop-color:#000000"/>
	</radialGradient>
	
		<rect x="1354.8" y="101.9" style="fill:url(#SVGID_00000002370554297915039290000014761131975060521862_);" width="113" height="237.8"/>
	
		<radialGradient id="SVGID_00000123421819519239103110000000002208083395816873_" cx="1690.8573" cy="577.5873" r="116.2583" gradientTransform="matrix(0 0.4616 -0.6587 0 1510.4163 -506.0316)" gradientUnits="userSpaceOnUse">
		<stop  offset="0" style="stop-color:#FBB766"/>
		<stop  offset="1" style="stop-color:#000000"/>
	</radialGradient>
	<polygon style="fill:url(#SVGID_00000123421819519239103110000000002208083395816873_);" points="1053.4,328.1 1053.4,220.8 
		1206.5,220.8 1206.5,328.1 	"/>
	
		<radialGradient id="SVGID_00000166672990178582818820000002719125802966900649_" cx="1888.5641" cy="571.4349" r="116.2583" gradientTransform="matrix(0 0.4616 -0.6587 0 1510.4163 -506.0316)" gradientUnits="userSpaceOnUse">
		<stop  offset="0" style="stop-color:#FBB766"/>
		<stop  offset="1" style="stop-color:#000000"/>
	</radialGradient>
	<polygon style="fill:url(#SVGID_00000166672990178582818820000002719125802966900649_);" points="1057.4,419.4 1057.4,312.1 
		1210.6,312.1 1210.6,419.4 	"/>
	<g>
		<path class="st9" d="M671.6,466.4c-7.3-0.8-13.2-5.2-15.2-11c-0.8-2.2-2.8-3.6-5-3.6h-12.4l3.1,32h32v-14.3
			C674.1,467.8,673.1,466.5,671.6,466.4z"/>
		<rect x="649.7" y="479.6" class="st16" width="27.1" height="4.1"/>
		<path class="st16" d="M649.3,466.4c-2.9-0.8-5.3-5.2-6.1-11c-0.3-2.2-1.7-3.6-2.5-3.6h-1.6l1.4,32h9.8v-14.3
			C650.3,467.8,649.9,466.5,649.3,466.4z"/>
		<polygon class="st9" points="655.7,495.2 658.9,495.2 662.6,483.7 659.4,483.7 		"/>
		<rect x="651.9" y="483.7" class="st11" width="3.1" height="11.5"/>
		<polygon class="st11" points="638.5,495.2 641.6,495.2 645.3,483.7 642.2,483.7 		"/>
		<rect x="670.3" y="483.7" class="st9" width="3.1" height="11.5"/>
	</g>
	<g>
		<path class="st9" d="M873.8,466.4c7.3-0.8,13.2-5.2,15.2-11c0.8-2.2,2.8-3.6,5-3.6h12.4l-3.1,32h-32v-14.3
			C871.3,467.8,872.4,466.5,873.8,466.4z"/>
		<rect x="868.6" y="479.6" class="st16" width="27.1" height="4.1"/>
		<path class="st16" d="M896.1,466.4c2.9-0.8,5.3-5.2,6.1-11c0.3-2.2,1.7-3.6,2.5-3.6h1.6l-1.4,32h-9.8v-14.3
			C895.1,467.8,895.5,466.5,896.1,466.4z"/>
		<polygon class="st9" points="889.7,495.2 886.6,495.2 882.9,483.7 886,483.7 		"/>
		<rect x="890.4" y="483.7" class="st11" width="3.1" height="11.5"/>
		<polygon class="st11" points="906.9,495.2 903.8,495.2 900.1,483.7 903.2,483.7 		"/>
		<rect x="871.9" y="483.7" class="st9" width="3.1" height="11.5"/>
	</g>
	<g>
		<path class="st16" d="M942.2,463.1c-2.8,0.1-1.7-2.8-0.7-5c1-2.3,2.2-5.1,0-5.3c-2.2-0.3-2.7-1.4-1.2-4.3c1.9-3.7,0.2-6.8-2.8-4.6
			c-2.1,1.6-0.6-5.8-2-7.5c-1.7-2-4.7-0.7-4.7,2.2c-0.1,4.6-2.9,1.5-3.8,3.2c-1.4,2.9,2.5,6.6-0.1,7.1c-2.6,0.6-2.1,3-1.1,4.9
			c0.9,1.9,3.4,4.8-0.5,6.1c-2.7,0.8,1.1,9.5,2,11.2h-1.1v23.9H940h2.6v-23.9h-0.9c0.3-0.5,1-1.7,1.8-3.4
			C944.6,465.1,945,463,942.2,463.1z"/>
	</g>
	<path class="st16" d="M632.2,463.1c-2.8,0.1-1.7-2.8-0.7-5c1-2.3,2.2-5.1,0-5.3c-2.2-0.3-2.7-1.4-1.2-4.3c1.9-3.7,0.2-6.8-2.8-4.6
		c-2.1,1.6-0.6-5.8-2-7.5c-1.7-2-4.7-0.7-4.7,2.2c-0.1,4.6-2.9,1.5-3.8,3.2c-1.4,2.9,2.5,6.6-0.1,7.1c-2.6,0.6-2.1,3-1.1,4.9
		c0.9,1.9,3.4,4.8-0.5,6.1c-2.7,0.8,1.1,9.5,2,11.2h-1.1v23.9H630h2.6v-23.9h-0.9c0.3-0.5,1-1.7,1.8-3.4
		C634.6,465.1,635,463,632.2,463.1z"/>
	<g>
		<g>
			<path class="st28" d="M624.6,456.3c-3.5,0.1-2.1-3.4-0.9-6.1c1.2-2.8,2.7-6.2,0-6.5c-2.7-0.3-3.3-1.7-1.4-5.2
				c2.3-4.5,0.2-8.2-3.4-5.5c-2.6,2-0.7-7-2.4-9c-2-2.4-5.6-0.9-5.7,2.7c-0.2,5.6-3.5,1.8-4.6,3.9c-1.8,3.5,3,8-0.2,8.7
				c-3.2,0.7-2.5,3.7-1.4,6s4.2,5.9-0.6,7.3c-3.2,1,1.4,11.5,2.4,13.6H624c0.4-0.6,1.2-2,2.2-4.2
				C627.6,458.7,628.1,456.2,624.6,456.3z"/>
			<g>
				<rect x="613.9" y="434" class="st8" width="0.6" height="32.1"/>
			</g>
			<g>
				<rect x="613" y="440.6" transform="matrix(0.6001 -0.8 0.8 0.6001 -106.3737 669.138)" class="st8" width="6" height="0.6"/>
			</g>
			<g>
				<rect x="612.1" y="444.9" transform="matrix(0.8 -0.6 0.6 0.8 -146.2317 457.028)" class="st8" width="0.6" height="6"/>
			</g>
			<g>
				
					<rect x="612.3" y="452.5" transform="matrix(0.592 -0.8059 0.8059 0.592 -113.2026 681.9959)" class="st8" width="9.5" height="0.6"/>
			</g>
			<g>
				
					<rect x="611.1" y="455.4" transform="matrix(0.8059 -0.592 0.592 0.8059 -153.7492 451.2648)" class="st8" width="0.6" height="9.5"/>
			</g>
		</g>
		<rect x="605.1" y="466.1" class="st11" width="20" height="29"/>
		<rect x="605.1" y="466.1" class="st29" width="16.9" height="29"/>
	</g>
	<g>
		<rect x="305.8" y="423.8" class="st11" width="49.2" height="83.5"/>
		<rect x="305.8" y="423.8" class="st29" width="41.5" height="83.5"/>
	</g>
	<g class="st30">
		<rect x="305.8" y="507.3" class="st11" width="49.2" height="83.5"/>
		<rect x="305.8" y="507.3" class="st29" width="41.5" height="83.5"/>
	</g>
	<g>
		<rect x="1210.4" y="425.4" class="st11" width="49.2" height="83.5"/>
		<rect x="1218.1" y="425.4" class="st29" width="41.5" height="83.5"/>
	</g>
	<g class="st30">
		<rect x="1210.4" y="509" class="st11" width="49.2" height="83.5"/>
		<rect x="1218.1" y="509" class="st29" width="41.5" height="83.5"/>
	</g>
	<g>
		<g>
			<path class="st28" d="M936.8,456.3c-3.5,0.1-2.1-3.4-0.9-6.1c1.2-2.8,2.7-6.2,0-6.5c-2.7-0.3-3.3-1.7-1.4-5.2
				c2.3-4.5,0.2-8.2-3.4-5.5c-2.6,2-0.7-7-2.4-9c-2-2.4-5.6-0.9-5.7,2.7c-0.2,5.6-3.5,1.8-4.6,3.9c-1.8,3.5,3,8-0.2,8.7
				c-3.2,0.7-2.5,3.7-1.4,6c1.1,2.3,4.2,5.9-0.6,7.3c-3.2,1,1.4,11.5,2.4,13.6h17.5c0.4-0.6,1.2-2,2.2-4.2
				C939.8,458.7,940.3,456.2,936.8,456.3z"/>
			<g>
				<rect x="926.1" y="434" class="st8" width="0.6" height="32.1"/>
			</g>
			<g>
				<rect x="925.2" y="440.6" transform="matrix(0.6001 -0.8 0.8 0.6001 18.5046 918.9142)" class="st8" width="6" height="0.6"/>
			</g>
			<g>
				<rect x="924.3" y="444.9" transform="matrix(0.8 -0.6 0.6 0.8 -83.7822 644.3723)" class="st8" width="0.6" height="6"/>
			</g>
			<g>
				
					<rect x="924.5" y="452.5" transform="matrix(0.592 -0.8059 0.8059 0.592 14.1803 933.6312)" class="st8" width="9.5" height="0.6"/>
			</g>
			<g>
				
					<rect x="923.3" y="455.4" transform="matrix(0.8059 -0.592 0.592 0.8059 -93.151 636.1151)" class="st8" width="0.6" height="9.5"/>
			</g>
		</g>
		<rect x="917.3" y="466.1" class="st11" width="20" height="29"/>
		<rect x="917.3" y="466.1" class="st29" width="16.9" height="29"/>
	</g>
	<g class="st31">
		<g>
			<path class="st28" d="M624.6,534c-3.5-0.1-2.1,3.4-0.9,6.1c1.2,2.8,2.7,6.2,0,6.5c-2.7,0.3-3.3,1.7-1.4,5.2
				c2.3,4.5,0.2,8.2-3.4,5.5c-2.6-2-0.7,7-2.4,9c-2,2.4-5.6,0.9-5.7-2.7c-0.2-5.6-3.5-1.8-4.6-3.9c-1.8-3.5,3-8-0.2-8.7
				c-3.2-0.7-2.5-3.7-1.4-6c1.1-2.3,4.2-5.9-0.6-7.3c-3.2-1,1.4-11.5,2.4-13.6H624c0.4,0.6,1.2,2,2.2,4.2
				C627.6,531.5,628.1,534.1,624.6,534z"/>
			<g>
				<rect x="613.9" y="524.2" class="st8" width="0.6" height="32.1"/>
			</g>
			<g>
				<rect x="615.7" y="546.3" transform="matrix(0.8 -0.6001 0.6001 0.8 -206.3994 479.5189)" class="st8" width="0.6" height="6"/>
			</g>
			<g>
				<rect x="609.4" y="542.1" transform="matrix(0.6 -0.8 0.8 0.6 -188.9742 706.8863)" class="st8" width="6" height="0.6"/>
			</g>
			<g>
				
					<rect x="616.7" y="532.7" transform="matrix(0.806 -0.5919 0.5919 0.806 -198.4355 469.5009)" class="st8" width="0.6" height="9.5"/>
			</g>
			<g>
				
					<rect x="606.7" y="529.8" transform="matrix(0.592 -0.8059 0.8059 0.592 -177.8188 709.0218)" class="st8" width="9.5" height="0.6"/>
			</g>
		</g>
		<rect x="605.1" y="495.1" class="st11" width="20" height="29"/>
		<rect x="605.1" y="495.1" class="st29" width="16.9" height="29"/>
	</g>
	<g class="st31">
		<g>
			<path class="st28" d="M936.8,534c-3.5-0.1-2.1,3.4-0.9,6.1c1.2,2.8,2.7,6.2,0,6.5c-2.7,0.3-3.3,1.7-1.4,5.2
				c2.3,4.5,0.2,8.2-3.4,5.5c-2.6-2-0.7,7-2.4,9c-2,2.4-5.6,0.9-5.7-2.7c-0.2-5.6-3.5-1.8-4.6-3.9c-1.8-3.5,3-8-0.2-8.7
				c-3.2-0.7-2.5-3.7-1.4-6c1.1-2.3,4.2-5.9-0.6-7.3c-3.2-1,1.4-11.5,2.4-13.6h17.5c0.4,0.6,1.2,2,2.2,4.2
				C939.8,531.5,940.3,534.1,936.8,534z"/>
			<g>
				<rect x="926.1" y="524.2" class="st8" width="0.6" height="32.1"/>
			</g>
			<g>
				<rect x="927.9" y="546.3" transform="matrix(0.8 -0.6001 0.6001 0.8 -143.9407 666.8755)" class="st8" width="0.6" height="6"/>
			</g>
			<g>
				<rect x="921.7" y="542.1" transform="matrix(0.6 -0.8 0.8 0.6 -64.0836 956.6717)" class="st8" width="6" height="0.6"/>
			</g>
			<g>
				
					<rect x="928.9" y="532.7" transform="matrix(0.806 -0.5919 0.5919 0.806 -137.8593 654.3212)" class="st8" width="0.6" height="9.5"/>
			</g>
			<g>
				
					<rect x="918.9" y="529.8" transform="matrix(0.592 -0.8059 0.8059 0.592 -50.4357 960.6573)" class="st8" width="9.5" height="0.6"/>
			</g>
		</g>
		<rect x="917.3" y="495.1" class="st11" width="20" height="29"/>
		<rect x="917.3" y="495.1" class="st29" width="16.9" height="29"/>
	</g>
	<g>
		<path class="st9" d="M339,402.3c0,8.1-2.7,13.5-6.8,16.3v5.2h-15v-5.2c-4.1-2.8-6.8-8.2-6.8-16.3c0-8.4,3-17.6,7.3-22.7l-2.3-20.4
			h18.5l-2.3,20.4C336,384.6,339,393.8,339,402.3z"/>
		<path class="st32" d="M333.6,402.3c0,8.1-2.7,13.5-6.8,16.3v5.2h-9.5v-5.2c-4.1-2.8-6.8-8.2-6.8-16.3c0-8.4,3-17.6,7.3-22.7
			l-2.3-20.4h13.1l-2.3,20.4C330.6,384.6,333.6,393.8,333.6,402.3z"/>
		<path class="st8" d="M345.6,387.6h-3.3v11.2c-1.5,3.4-2.6,11-2.6,16.5c0,4,0.6,5.9,1.5,6.9v1.6h5.6v-1.6c0.9-1,1.5-2.9,1.5-6.9
			c0-5.4-1.1-13-2.6-16.5V387.6z"/>
	</g>
	<polygon class="st11" points="343.6,416.3 330.5,416.3 333.5,423.8 346.6,423.8 	"/>
	<path class="st9" d="M1263.1,397.5v3.7c0,13.4-9.2,24.3-20.7,24.3h-11.2c-11.4,0-20.7-10.9-20.7-24.3v-3.7H1263.1z"/>
	<path class="st10" d="M1252.6,397.5v3.7c0,13.4-9.2,24.3-20.7,24.3h-0.7c-11.4,0-20.7-10.9-20.7-24.3v-3.7H1252.6z"/>
</g>
<g id="Layer_7">
	<g>
		<g>
			<g>
				<path class="st16" d="M715.9,461.8c-18.8,0-28.9-6.6-29-6.7l0.3-0.5c0.1,0.1,10.1,6.6,28.7,6.6c18.6,0,28.6-6.5,28.7-6.6
					l0.3,0.5C744.9,455.1,734.7,461.8,715.9,461.8z"/>
			</g>
			<g>
				<g>
					<g>
						<rect x="685.9" y="452.9" class="st33" width="2.2" height="44.9"/>
						<rect x="687.1" y="452.9" class="st34" width="1.1" height="44.9"/>
					</g>
					<rect x="688.1" y="454" class="st16" width="0.6" height="3"/>
					<rect x="685.3" y="454" class="st16" width="0.6" height="3"/>
					<rect x="686.8" y="454" class="st16" width="0.6" height="3"/>
				</g>
			</g>
			<path class="st16" d="M690.5,499.8h-6.9v-1c0-0.5,0.4-0.9,0.9-0.9h5c0.5,0,0.9,0.4,0.9,0.9V499.8z"/>
		</g>
		<g>
			<g>
				<path class="st16" d="M774.6,461.8c-18.8,0-28.9-6.6-29-6.7l0.3-0.5c0.1,0.1,10.1,6.6,28.7,6.6c18.6,0,28.6-6.5,28.7-6.6
					l0.3,0.5C803.5,455.1,793.4,461.8,774.6,461.8z"/>
			</g>
			<g>
				<g>
					<g>
						<rect x="744.6" y="452.9" class="st33" width="2.2" height="44.9"/>
						<rect x="745.7" y="452.9" class="st34" width="1.1" height="44.9"/>
					</g>
					<rect x="746.8" y="454" class="st16" width="0.6" height="3"/>
					<rect x="744" y="454" class="st16" width="0.6" height="3"/>
					<rect x="745.4" y="454" class="st16" width="0.6" height="3"/>
				</g>
			</g>
			<path class="st16" d="M749.1,499.8h-6.9v-1c0-0.5,0.4-0.9,0.9-0.9h5c0.5,0,0.9,0.4,0.9,0.9V499.8z"/>
		</g>
		<g>
			<g>
				<path class="st16" d="M833.3,461.8c-18.8,0-28.9-6.6-29-6.7l0.3-0.5c0.1,0.1,10.1,6.6,28.7,6.6c18.6,0,28.6-6.5,28.7-6.6
					l0.3,0.5C862.2,455.1,852,461.8,833.3,461.8z"/>
			</g>
			<g>
				<g>
					<g>
						<rect x="803.3" y="452.9" class="st33" width="2.2" height="44.9"/>
						<rect x="804.4" y="452.9" class="st34" width="1.1" height="44.9"/>
					</g>
					<rect x="805.5" y="454" class="st16" width="0.6" height="3"/>
					<rect x="802.7" y="454" class="st16" width="0.6" height="3"/>
					<rect x="804.1" y="454" class="st16" width="0.6" height="3"/>
				</g>
			</g>
			<path class="st16" d="M807.8,499.8h-6.9v-1c0-0.5,0.4-0.9,0.9-0.9h5c0.5,0,0.9,0.4,0.9,0.9V499.8z"/>
		</g>
		<g>
			<g>
				<g>
					<g>
						<rect x="861.9" y="452.9" class="st33" width="2.2" height="44.9"/>
						<rect x="863.1" y="452.9" class="st34" width="1.1" height="44.9"/>
					</g>
					<rect x="864.1" y="454" class="st16" width="0.6" height="3"/>
					<rect x="861.3" y="454" class="st16" width="0.6" height="3"/>
					<rect x="862.8" y="454" class="st16" width="0.6" height="3"/>
				</g>
			</g>
			<path class="st16" d="M866.5,499.8h-6.9v-1c0-0.5,0.4-0.9,0.9-0.9h5c0.5,0,0.9,0.4,0.9,0.9V499.8z"/>
		</g>
	</g>
	<g>
		<g>
			<g>
				<path class="st16" d="M421.1,468.1c-19,0-29.3-6.4-29.4-6.5l0.4-0.6c0.1,0.1,11,6.9,31.3,6.4c20.3-0.5,31.2-7.9,31.3-8l0.4,0.6
					c-0.1,0.1-11.2,7.6-31.6,8.1C422.6,468.1,421.8,468.1,421.1,468.1z"/>
			</g>
			<g>
				<g>
					<g>
						<polygon class="st33" points="393,459.3 390.6,459.3 390.6,508.2 393,508.2 						"/>
						<polygon class="st34" points="393,459.3 391.9,459.3 391.9,508.2 393,508.2 						"/>
					</g>
					<polygon class="st16" points="393.7,463.6 393,463.6 393,460.4 393.7,460.4 					"/>
					<polygon class="st16" points="390.6,463.7 390,463.7 390,460.5 390.6,460.5 					"/>
					<polygon class="st16" points="392.2,463.6 391.5,463.7 391.5,460.4 392.2,460.4 					"/>
				</g>
			</g>
			<path class="st16" d="M395.6,510.3l-7.5,0.2v-1.1c0-0.6,0.5-1,1-1.1l5.4-0.1c0.6,0,1,0.4,1,1V510.3z"/>
		</g>
		<g>
			<g>
				<path class="st16" d="M485,466.4c-19,0-29.3-6.4-29.4-6.5l0.4-0.6c0.1,0.1,11,6.9,31.3,6.3c20.2-0.5,31.2-7.9,31.3-8l0.4,0.6
					c-0.1,0.1-11.2,7.6-31.6,8.1C486.5,466.4,485.8,466.4,485,466.4z"/>
			</g>
			<g>
				<g>
					<g>
						<polygon class="st33" points="457,457.6 454.6,457.6 454.6,506.5 457,506.5 						"/>
						<polygon class="st34" points="457,457.6 455.8,457.6 455.8,506.5 457,506.5 						"/>
					</g>
					<polygon class="st16" points="457.6,461.9 457,461.9 457,458.7 457.6,458.7 					"/>
					<polygon class="st16" points="454.6,462 453.9,462 453.9,458.8 454.6,458.8 					"/>
					<polygon class="st16" points="456.2,461.9 455.5,462 455.5,458.7 456.2,458.7 					"/>
				</g>
			</g>
			<path class="st16" d="M459.5,508.6l-7.5,0.2v-1.1c0-0.6,0.5-1,1-1.1l5.4-0.1c0.6,0,1,0.4,1,1V508.6z"/>
		</g>
		<g>
			<g>
				<path class="st16" d="M549,464.7c-19,0-29.3-6.4-29.4-6.5l0.4-0.6c0.1,0.1,11,6.9,31.3,6.4c20.3-0.5,31.2-7.9,31.3-8l0.4,0.6
					c-0.1,0.1-11.2,7.6-31.7,8.1C550.5,464.7,549.7,464.7,549,464.7z"/>
			</g>
			<g>
				<g>
					<g>
						<polygon class="st33" points="520.9,455.9 518.6,455.9 518.6,504.8 520.9,504.8 						"/>
						<polygon class="st34" points="520.9,455.9 519.8,455.9 519.8,504.8 520.9,504.8 						"/>
					</g>
					<polygon class="st16" points="521.6,460.2 520.9,460.2 520.9,457 521.6,457 					"/>
					<polygon class="st16" points="518.6,460.3 517.9,460.3 517.9,457.1 518.6,457.1 					"/>
					<polygon class="st16" points="520.1,460.2 519.5,460.3 519.5,457 520.1,457 					"/>
				</g>
			</g>
			<path class="st16" d="M523.5,506.9l-7.5,0.2v-1.1c0-0.6,0.5-1,1-1.1l5.4-0.1c0.6,0,1,0.4,1,1V506.9z"/>
		</g>
		<g>
			<g>
				<g>
					<g>
						<polygon class="st33" points="584.9,454.2 582.5,454.2 582.5,503.1 584.9,503.1 						"/>
						<polygon class="st34" points="584.9,454.2 583.7,454.2 583.7,503.1 584.9,503.1 						"/>
					</g>
					<polygon class="st16" points="585.6,458.5 584.9,458.5 584.9,455.3 585.6,455.3 					"/>
					<polygon class="st16" points="582.5,458.6 581.8,458.6 581.8,455.4 582.5,455.4 					"/>
					<polygon class="st16" points="584.1,458.5 583.4,458.6 583.4,455.3 584.1,455.3 					"/>
				</g>
			</g>
			<path class="st16" d="M587.5,505.2l-7.5,0.2v-1.1c0-0.6,0.5-1,1-1.1l5.4-0.1c0.6,0,1,0.4,1,1V505.2z"/>
		</g>
	</g>
	<g>
		<rect x="691" y="497.7" class="st11" width="17" height="1.9"/>
		<rect x="698.5" y="434.3" class="st35" width="1.2" height="63.5"/>
		<rect x="695" y="423.3" class="st11" width="8.2" height="11"/>
	</g>
	<g>
		<rect x="949.2" y="497.7" class="st11" width="17" height="1.9"/>
		<rect x="956.6" y="434.3" class="st35" width="1.2" height="63.5"/>
		<rect x="953.1" y="423.3" class="st11" width="8.2" height="11"/>
	</g>
	<g>
		<g>
			<g>
				<path class="st16" d="M12,483.9l-0.5-0.8c-0.1,0-4,2.4-11.6,5.1v0.9C7.8,486.4,11.9,484,12,483.9z"/>
			</g>
		</g>
		<g>
			<g>
				<path class="st16" d="M108.5,489c-22.8,0-95.1-5.1-95.3-5.2l0.4-0.8c0.2,0.1,77.5,7.3,109.4,4.5c31.6-2.8,48.4-12.9,48.6-13
					l0.5,0.8c-0.2,0.1-17.2,10.3-49,13.2C117.8,488.8,113,489,108.5,489z"/>
			</g>
			<g>
				<g>
					<g>
						<polygon class="st33" points="15.2,480.7 11.5,481 11.5,541.2 15.2,540.8 						"/>
						<polygon class="st34" points="15.2,480.7 13.4,480.8 13.4,541 15.2,540.8 						"/>
					</g>
					<polygon class="st16" points="76.3,486 15.2,486 15.2,482.1 76.3,482 					"/>
					<polygon class="st16" points="11.5,486.4 10.4,486.5 10.4,482.5 11.5,482.4 					"/>
					<polygon class="st16" points="13.9,486.2 12.9,486.3 12.9,482.3 13.9,482.2 					"/>
				</g>
			</g>
			<path class="st16" d="M79.3,543l-72,1.2v-1.4c0-0.7,0.7-1.3,1.6-1.4l68.7-0.8c0.9-0.1,1.6,0.4,1.6,1.1V543z"/>
		</g>
		<g>
			<g>
				<path class="st16" d="M207.6,480.2c-22.2,0-34.2-5.1-34.4-5.2l0.4-0.8c0.2,0.1,17,7.2,47.8,4.5c30.5-2.7,46.9-12.7,47.1-12.8
					l0.5,0.8c-0.2,0.1-16.7,10.2-47.5,12.9C216.5,480,211.9,480.2,207.6,480.2z"/>
			</g>
			<g>
				<g>
					<g>
						<polygon class="st33" points="175.2,472 171.5,472.3 171.5,531.5 175.2,531.1 						"/>
						<polygon class="st34" points="175.2,472 173.4,472.1 173.4,531.3 175.2,531.1 						"/>
					</g>
					<polygon class="st16" points="176.2,477.2 175.2,477.3 175.2,473.4 176.2,473.3 					"/>
					<polygon class="st16" points="171.5,477.6 170.5,477.7 170.5,473.8 171.5,473.7 					"/>
					<polygon class="st16" points="173.9,477.4 172.9,477.5 172.9,473.6 173.9,473.5 					"/>
				</g>
			</g>
			<path class="st16" d="M179.1,533.4l-11.6,1.1v-1.4c0-0.7,0.7-1.3,1.6-1.4l8.4-0.8c0.9-0.1,1.6,0.4,1.6,1.1V533.4z"/>
		</g>
		<g>
			<g>
				<g>
					<g>
						<polygon class="st33" points="271.9,463.6 268.4,463.9 268.4,522.1 271.9,521.8 						"/>
						<polygon class="st34" points="271.9,463.6 270.2,463.7 270.2,521.9 271.9,521.8 						"/>
					</g>
					<polygon class="st16" points="272.9,468.7 271.9,468.8 271.9,464.9 272.9,464.8 					"/>
					<polygon class="st16" points="268.4,469.1 267.4,469.2 267.4,465.3 268.4,465.2 					"/>
					<polygon class="st16" points="270.7,468.9 269.7,469 269.7,465.1 270.7,465 					"/>
				</g>
			</g>
			<path class="st16" d="M275.8,524l-11.2,1.1v-1.3c0-0.7,0.7-1.3,1.5-1.4l8.1-0.8c0.8-0.1,1.5,0.4,1.5,1.1V524z"/>
		</g>
	</g>
	<g>
		<g>
			<g>
				<path class="st16" d="M1466.6,483.6l-0.5,0.8c0.1,0.1,72.2,5.5,104,9.6v-0.9C1538.5,489.1,1466.7,483.7,1466.6,483.6z"/>
			</g>
		</g>
		<g>
			<g>
				<path class="st16" d="M1429.6,489.5c-4.5,0-9.3-0.2-14.5-0.7c-31.8-2.8-48.8-13.1-49-13.2l0.5-0.8c0.2,0.1,17.1,10.2,48.6,13
					c31.9,2.8,49.2-4.4,49.4-4.5l0.4,0.8C1464.7,484.3,1452.4,489.5,1429.6,489.5z"/>
			</g>
			<g>
				<g>
					<g>
						<polygon class="st33" points="1462.9,481.2 1466.7,481.5 1466.7,541.6 1462.9,541.3 						"/>
						<polygon class="st34" points="1462.9,481.2 1464.7,481.3 1464.7,541.4 1462.9,541.3 						"/>
					</g>
					<polygon class="st16" points="1461.8,486.4 1462.9,486.5 1462.9,482.6 1461.8,482.5 					"/>
					<polygon class="st16" points="1466.7,486.9 1467.7,487 1467.7,483 1466.7,482.9 					"/>
					<polygon class="st16" points="1464.2,486.6 1465.2,486.7 1465.2,482.8 1464.2,482.7 					"/>
				</g>
			</g>
			<path class="st16" d="M1458.8,543.5l11.9,1.2v-1.4c0-0.7-0.7-1.3-1.6-1.4l-8.6-0.8c-0.9-0.1-1.6,0.4-1.6,1.1V543.5z"/>
		</g>
		<g>
			<g>
				<path class="st16" d="M1330.6,480.7c-4.3,0-8.9-0.2-13.9-0.6c-30.8-2.7-47.3-12.8-47.5-12.9l0.5-0.8c0.2,0.1,16.5,10,47.1,12.8
					c30.9,2.7,47.6-4.4,47.8-4.5l0.4,0.8C1364.8,475.6,1352.8,480.7,1330.6,480.7z"/>
			</g>
			<g>
				<g>
					<g>
						<polygon class="st33" points="1363,472.5 1366.6,472.8 1366.6,532 1363,531.6 						"/>
						<polygon class="st34" points="1363,472.5 1364.7,472.6 1364.7,531.8 1363,531.6 						"/>
					</g>
					<polygon class="st16" points="1362,477.7 1363,477.7 1363,473.8 1362,473.8 					"/>
					<polygon class="st16" points="1366.6,478.1 1367.7,478.2 1367.7,474.3 1366.6,474.2 					"/>
					<polygon class="st16" points="1364.2,477.9 1365.3,477.9 1365.3,474 1364.2,474 					"/>
				</g>
			</g>
			<path class="st16" d="M1359,533.8l11.6,1.1v-1.4c0-0.7-0.7-1.3-1.6-1.4l-8.4-0.8c-0.9-0.1-1.6,0.4-1.6,1.1V533.8z"/>
		</g>
		<g>
			<g>
				<g>
					<g>
						<polygon class="st33" points="1266.2,464 1269.8,464.4 1269.8,522.6 1266.2,522.3 						"/>
						<polygon class="st34" points="1266.2,464 1267.9,464.2 1267.9,522.4 1266.2,522.3 						"/>
					</g>
					<polygon class="st16" points="1265.2,469.2 1266.2,469.2 1266.2,465.4 1265.2,465.3 					"/>
					<polygon class="st16" points="1269.8,469.6 1270.8,469.6 1270.8,465.8 1269.8,465.7 					"/>
					<polygon class="st16" points="1267.4,469.3 1268.4,469.4 1268.4,465.6 1267.4,465.5 					"/>
				</g>
			</g>
			<path class="st16" d="M1262.4,524.5l11.2,1.1v-1.3c0-0.7-0.7-1.3-1.5-1.4l-8.1-0.8c-0.8-0.1-1.5,0.4-1.5,1.1V524.5z"/>
		</g>
	</g>
	<g>
		<g>
			<g>
				<path class="st16" d="M1150.1,470.6c-1.6,0-3.3,0-5.1-0.1c-20.8-1.2-32-9.1-32.1-9.2l0.4-0.6c0.1,0.1,11.2,7.8,31.8,9
					c20.6,1.2,31.6-5.3,31.8-5.3l0.4,0.6C1177.1,465.1,1167.7,470.6,1150.1,470.6z"/>
			</g>
			<g>
				<g>
					<g>
						<polygon class="st33" points="1175.9,462.6 1178.3,462.7 1178.3,511.6 1175.9,511.5 						"/>
						<polygon class="st34" points="1175.9,462.6 1177,462.7 1177,511.6 1175.9,511.5 						"/>
					</g>
					<polygon class="st16" points="1175.2,466.9 1175.9,467 1175.9,463.7 1175.2,463.7 					"/>
					<polygon class="st16" points="1178.3,467.1 1179,467.1 1179,463.9 1178.3,463.9 					"/>
					<polygon class="st16" points="1176.7,467 1177.4,467 1177.4,463.8 1176.7,463.8 					"/>
				</g>
			</g>
			<path class="st16" d="M1173.3,513.5l7.6,0.4v-1.1c0-0.6-0.5-1.1-1-1.1l-5.5-0.3c-0.6,0-1,0.4-1,1V513.5z"/>
		</g>
		<g>
			<g>
				<path class="st16" d="M1085.2,466.8c-1.6,0-3.3,0-5.1-0.1c-20.8-1.2-32-9.1-32.1-9.2l0.4-0.6c0.1,0.1,11.2,7.8,31.8,9
					c20.5,1.2,31.6-5.3,31.8-5.3l0.4,0.6C1112.2,461.3,1102.7,466.8,1085.2,466.8z"/>
			</g>
			<g>
				<g>
					<g>
						<polygon class="st33" points="1110.9,458.8 1113.3,458.9 1113.3,507.9 1110.9,507.7 						"/>
						<polygon class="st34" points="1110.9,458.8 1112.1,458.9 1112.1,507.8 1110.9,507.7 						"/>
					</g>
					<polygon class="st16" points="1110.3,463.1 1110.9,463.2 1110.9,459.9 1110.3,459.9 					"/>
					<polygon class="st16" points="1113.3,463.3 1114,463.4 1114,460.1 1113.3,460.1 					"/>
					<polygon class="st16" points="1111.8,463.2 1112.4,463.3 1112.4,460 1111.8,460 					"/>
				</g>
			</g>
			<path class="st16" d="M1108.3,509.7l7.6,0.4V509c0-0.6-0.5-1.1-1-1.1l-5.5-0.3c-0.6,0-1,0.4-1,1V509.7z"/>
		</g>
		<g>
			<g>
				<path class="st16" d="M1020.2,463c-1.6,0-3.3,0-5.1-0.1c-20.8-1.2-32-9.1-32.1-9.2l0.4-0.6c0.1,0.1,11.2,7.8,31.8,9
					c20.5,1.2,31.6-5.3,31.8-5.3l0.4,0.6C1047.2,457.5,1037.8,463,1020.2,463z"/>
			</g>
			<g>
				<g>
					<g>
						<polygon class="st33" points="1046,455 1048.4,455.2 1048.4,504.1 1046,503.9 						"/>
						<polygon class="st34" points="1046,455 1047.1,455.1 1047.1,504 1046,503.9 						"/>
					</g>
					<polygon class="st16" points="1045.3,459.3 1046,459.4 1046,456.2 1045.3,456.1 					"/>
					<polygon class="st16" points="1048.4,459.5 1049.1,459.6 1049.1,456.3 1048.4,456.3 					"/>
					<polygon class="st16" points="1046.8,459.4 1047.5,459.5 1047.5,456.3 1046.8,456.2 					"/>
				</g>
			</g>
			<path class="st16" d="M1043.4,505.9l7.6,0.4v-1.1c0-0.6-0.5-1.1-1-1.1l-5.5-0.3c-0.6,0-1,0.4-1,1V505.9z"/>
		</g>
		<g>
			<g>
				<g>
					<g>
						<polygon class="st33" points="981,451.2 983.5,451.4 983.5,500.3 981,500.1 						"/>
						<polygon class="st34" points="981,451.2 982.2,451.3 982.2,500.2 981,500.1 						"/>
					</g>
					<polygon class="st16" points="980.4,455.6 981,455.6 981,452.4 980.4,452.3 					"/>
					<polygon class="st16" points="983.5,455.7 984.1,455.8 984.1,452.6 983.5,452.5 					"/>
					<polygon class="st16" points="981.9,455.7 982.5,455.7 982.5,452.5 981.9,452.4 					"/>
				</g>
			</g>
			<path class="st16" d="M978.4,502.1l7.6,0.4v-1.1c0-0.6-0.5-1.1-1-1.1l-5.5-0.3c-0.6,0-1,0.4-1,1V502.1z"/>
		</g>
	</g>
</g>
<g id="Layer_5">
	<polygon class="st8" points="1284.4,428 1284.4,343.7 1450,320.3 1450,428 	"/>
	<polygon class="st8" points="1450.5,279.7 1382.3,293 1382.3,147.9 1450.5,120.3 	"/>
	<polygon class="st8" points="1284.5,312.1 1284.5,187.5 1365,154.9 1365,296.4 	"/>
	<polygon class="st8" points="1191.3,338.4 1191.3,435.2 1071.6,435.3 1071.6,349.2 	"/>
	<polygon class="st8" points="1046.2,435.8 972.7,435.8 972.7,316.4 1046.2,306.2 	"/>
	<polygon class="st8" points="1191.3,232.9 1191.3,324.8 1071.8,337.1 1071.8,255.5 	"/>
	<polygon class="st8" points="216.8,440.1 216.8,172.4 289.4,215.6 289.4,440.1 	"/>
	<polygon class="st8" points="203.2,309.4 203.2,438 81,437.5 81,274.8 	"/>
	<polygon class="st8" points="80.1,256.4 80.1,91.2 204,165 204,295.2 	"/>
	<polygon class="st8" points="474.1,424.7 369.4,424.7 369.4,253.2 474.1,275.4 	"/>
	<polygon class="st8" points="585.4,424.7 506.2,424.7 506.2,282.2 585.4,299 	"/>
	
		<rect x="875.5" y="322.3" transform="matrix(6.123234e-17 -1 1 6.123234e-17 550.7036 1237.8569)" class="st8" width="37.5" height="42.6"/>
	
		<rect x="875.5" y="368.8" transform="matrix(-1.836970e-16 1 -1 -1.836970e-16 1284.0629 -504.1525)" class="st8" width="37.2" height="42.3"/>
	
		<rect x="876.5" y="280.5" transform="matrix(6.123234e-17 -1 1 6.123234e-17 592.5782 1196.0504)" class="st8" width="35.6" height="42.6"/>
	
		<rect x="648.2" y="323.2" transform="matrix(6.123234e-17 -1 1 6.123234e-17 322.4565 1011.4009)" class="st8" width="37.5" height="42.6"/>
	
		<rect x="648.2" y="369.7" transform="matrix(-1.836970e-16 1 -1 -1.836970e-16 1057.6068 -275.9054)" class="st8" width="37.2" height="42.3"/>
	
		<rect x="649.2" y="281.4" transform="matrix(6.123234e-17 -1 1 6.123234e-17 364.3311 969.5944)" class="st9" width="35.6" height="42.6"/>
	<g>
		<polygon class="st8" points="471.4,421.8 366.7,421.8 366.7,250.4 471.4,272.6 		"/>
		<polygon class="st10" points="461.9,409.8 378.8,408.5 378.8,266.3 461.9,282.6 		"/>
		<polygon class="st11" points="448.7,397.5 394.5,395.8 394.5,285.2 448.7,294.8 		"/>
	</g>
	<g>
		<polygon class="st8" points="1187.1,335.7 1187.1,432.5 1067.5,432.6 1067.5,346.5 		"/>
		<polygon class="st11" points="1173.1,348.1 1173.1,421.3 1078.9,422.4 1078.9,355.7 		"/>
		<polygon class="st10" points="1159.9,362.2 1159.9,408.4 1091.8,410 1091.8,366.8 		"/>
	</g>
	<g>
		<polygon class="st9" points="215.5,438.1 215.5,170.4 288.1,213.6 288.1,438.1 		"/>
		<polygon class="st11" points="223.7,423.8 223.7,189.6 282.1,222.5 282.1,425.7 		"/>
		<polygon class="st8" points="231.3,407.4 231.3,210.5 275.3,233.6 275.3,410.5 		"/>
	</g>
	<g>
		<polygon class="st8" points="1042.1,433.1 968.6,433.1 968.6,313.7 1042.1,303.5 		"/>
		<polygon class="st10" points="1036.4,427.4 973.4,427.7 973.4,318.4 1036.4,310 		"/>
		<polygon class="st11" points="1027.3,420.1 981.5,420.7 981.5,326.2 1027.3,320.6 		"/>
		<polygon class="st11" points="1027.3,420.1 981.5,420.7 981.5,326.2 1027.3,320.6 		"/>
		<polygon class="st8" points="1020.7,410.4 987.6,411.2 987.6,333.2 1020.7,329.4 		"/>
	</g>
	<g>
		<polygon class="st9" points="1187.1,230.2 1187.1,322.1 1067.6,334.4 1067.6,252.7 		"/>
		<polygon class="st8" points="1180.6,237.4 1180.6,316.8 1072.9,328.5 1072.9,257.1 		"/>
		<polygon class="st11" points="1172.3,248.8 1172.3,307.8 1081.5,318.5 1081.5,264.5 		"/>
		<polygon class="st10" points="1172.3,248.8 1172.3,307.8 1081.5,318.5 1081.5,264.5 		"/>
	</g>
	<g>
		<polygon class="st9" points="582.7,421.8 503.5,421.8 503.5,279.4 582.7,296.2 		"/>
		<polygon class="st8" points="578.1,415.4 509.3,414.7 509.3,287.7 578.1,301.6 		"/>
		<polygon class="st11" points="570.2,407 518.7,405.8 518.7,301.1 570.2,310.7 		"/>
		<polygon class="st9" points="575.9,413.3 511.7,412.4 511.7,290.8 575.9,303.6 		"/>
		<polygon class="st11" points="571.2,404.7 517.3,403.3 517.3,301.1 571.2,311.1 		"/>
		<polygon class="st8" points="563.5,393.3 526.4,391.7 526.4,314.6 563.5,320.9 		"/>
		<path class="st10" d="M558.1,356.8c0,19.3-5.6,24.5-12.7,24.1c-7.2-0.4-13.2-6.8-13.2-26.9c0-20.1,6-28.2,13.2-27.1
			C552.4,328,558.1,337.4,558.1,356.8z"/>
	</g>
	<g>
		<rect x="712.7" y="245.8" class="st8" width="132" height="190.3"/>
		<rect x="709" y="241.8" class="st9" width="132" height="190.3"/>
		<rect x="717.7" y="250.3" class="st8" width="114.7" height="173.3"/>
		<rect x="732" y="264.3" class="st11" width="86" height="148.4"/>
		<rect x="732" y="264.3" class="st11" width="86" height="148.4"/>
		<rect x="742.5" y="276.3" class="st8" width="65" height="121.7"/>
		<path class="st10" d="M742.5,398v-69H763c6.7,0,12.1,5.4,12.1,12.1l0,0c0,6.7,5.4,12.1,12.1,12.1h20.4V398H742.5z"/>
	</g>
	<g>
		<g>
			
				<rect x="646.4" y="321.2" transform="matrix(6.123234e-17 -1 1 6.123234e-17 322.7065 1007.6509)" class="st8" width="37.5" height="42.6"/>
			
				<rect x="650.8" y="326.1" transform="matrix(6.123234e-17 -1 1 6.123234e-17 322.7064 1007.6509)" class="st11" width="28.8" height="32.7"/>
		</g>
		<g>
			
				<rect x="646.4" y="367.7" transform="matrix(-1.836970e-16 1 -1 -1.836970e-16 1053.8568 -276.1554)" class="st8" width="37.2" height="42.3"/>
			
				<rect x="649" y="370.3" transform="matrix(-1.836970e-16 1 -1 -1.836970e-16 1053.8568 -276.1554)" class="st10" width="31.9" height="37.1"/>
			
				<rect x="653" y="374.1" transform="matrix(-1.836970e-16 1 -1 -1.836970e-16 1053.3993 -275.6977)" class="st11" width="23.2" height="29.5"/>
			
				<rect x="656.6" y="378.2" transform="matrix(-1.836970e-16 1 -1 -1.836970e-16 1053.806 -276.1046)" class="st8" width="16.8" height="21.4"/>
		</g>
		<g>
			
				<rect x="647.4" y="279.4" transform="matrix(6.123234e-17 -1 1 6.123234e-17 364.5811 965.8444)" class="st9" width="35.6" height="42.6"/>
			
				<rect x="649.7" y="281.6" transform="matrix(6.123234e-17 -1 1 6.123234e-17 364.5811 965.8444)" class="st8" width="30.9" height="38"/>
			
				<rect x="654" y="285" transform="matrix(6.123234e-17 -1 1 6.123234e-17 364.9857 966.249)" class="st11" width="23.2" height="31.3"/>
			
				<rect x="654" y="285" transform="matrix(6.123234e-17 -1 1 6.123234e-17 364.9857 966.249)" class="st10" width="23.2" height="31.3"/>
		</g>
	</g>
	<g>
		<g>
			
				<rect x="873" y="320.8" transform="matrix(6.123234e-17 -1 1 6.123234e-17 549.6399 1233.9194)" class="st10" width="37.5" height="42.6"/>
			
				<rect x="877.4" y="325.8" transform="matrix(6.123234e-17 -1 1 6.123234e-17 549.6398 1233.9193)" class="st8" width="28.8" height="32.7"/>
			
				<rect x="883" y="330.9" transform="matrix(6.123234e-17 -1 1 6.123234e-17 550.0159 1234.2955)" class="st9" width="18.4" height="22.4"/>
		</g>
		<g>
			
				<rect x="873" y="367.4" transform="matrix(-1.836970e-16 1 -1 -1.836970e-16 1280.1254 -503.0888)" class="st8" width="37.2" height="42.3"/>
			
				<rect x="875.6" y="370" transform="matrix(-1.836970e-16 1 -1 -1.836970e-16 1280.1252 -503.0888)" class="st10" width="31.9" height="37.1"/>
			
				<rect x="880.5" y="374.9" transform="matrix(-1.836970e-16 1 -1 -1.836970e-16 1279.6677 -502.6312)" class="st11" width="21.3" height="27.2"/>
		</g>
		<g>
			
				<rect x="874" y="279" transform="matrix(6.123234e-17 -1 1 6.123234e-17 591.5145 1192.1129)" class="st9" width="35.6" height="42.6"/>
			
				<rect x="878.3" y="283.7" transform="matrix(6.123234e-17 -1 1 6.123234e-17 591.5145 1192.1129)" class="st8" width="27.1" height="33.3"/>
		</g>
	</g>
	<g>
		<polygon class="st10" points="202,307.4 202,436 79.7,435.5 79.7,272.8 		"/>
		<polygon class="st8" points="197.6,314.7 197.6,427.5 86.5,424.9 86.5,285.3 		"/>
		<polygon class="st10" points="196.2,318.2 196.2,423.8 89,420.6 89,290.8 		"/>
		<polygon class="st11" points="190.3,325.2 190.3,415.1 97.6,410.7 97.6,303.2 		"/>
		<path class="st8" d="M97.4,303.1l60.5,14.4v30.2c0,9.8-4.3,17.2-9.6,16.5l0,0c-5.5-0.8-10,6.9-10,17.1v31.4l-40.9-2V303.1z"/>
	</g>
	<g>
		<polygon class="st8" points="78.8,254.4 78.8,89.2 202.7,163 202.7,293.2 		"/>
		<polygon class="st10" points="89.8,243.1 89.8,110.5 195.7,170.8 195.7,279 		"/>
		<polygon class="st11" points="97.8,229.5 97.8,131.4 188.6,180.5 188.6,262.9 		"/>
		<polygon class="st11" points="97.8,229.5 97.8,131.4 188.6,180.5 188.6,262.9 		"/>
		<polygon class="st8" points="108.3,221.6 108.3,148.9 182.4,187.4 182.4,250.4 		"/>
		<g>
			<path class="st8" d="M192.8,273.2L92.2,237.9V117.8L192.8,174V273.2z M93.5,236.9l97.9,34.4v-96.5l-97.9-54.6V236.9z"/>
		</g>
		<path class="st10" d="M120.1,213.2c0-26.5,12.9-41.5,27.9-33.9c14.2,7.1,25.2,32,25.2,55.9L120.1,213.2z"/>
	</g>
	<g>
		<g>
			<polygon class="st8" points="1279.3,424.8 1279.3,340.5 1445,317 1445,424.8 			"/>
			<polygon class="st10" points="1282.9,418.2 1282.9,346.5 1439.1,326.1 1439.1,416.5 			"/>
			<polygon class="st11" points="1287.6,409.4 1287.6,354.8 1427.1,337.9 1427.1,405.7 			"/>
		</g>
		<g>
			<polygon class="st9" points="1445.4,276.4 1377.2,289.7 1377.2,144.7 1445.4,117 			"/>
			<polygon class="st8" points="1440.5,270.3 1381.3,282.4 1381.3,149.5 1440.5,126.1 			"/>
			<polygon class="st11" points="1432.6,262.9 1388.2,272.5 1388.2,157.6 1432.6,140.7 			"/>
			<polygon class="st9" points="1438.3,268.4 1383,279.9 1383,151.2 1438.3,129.6 			"/>
			<polygon class="st11" points="1433.6,260.2 1387.1,270.5 1387.1,158.2 1433.6,140.6 			"/>
			<polygon class="st8" points="1426,250.1 1394.1,257.6 1394.1,166.9 1426,155.3 			"/>
			<path class="st10" d="M1421,202.9c0,20.1-5.1,37.8-11.4,39.3c-6.1,1.5-11-13.1-11-32.6s4.9-37.1,11-39.2
				C1415.8,168.2,1421,182.7,1421,202.9z"/>
		</g>
		<g>
			<polygon class="st9" points="1279.4,308.8 1279.4,184.2 1359.9,151.6 1359.9,293.1 			"/>
			<polygon class="st11" points="1286.4,295.9 1286.4,193 1351.2,168 1351.2,282 			"/>
			<polygon class="st8" points="1293.2,280.6 1293.2,204.2 1341.8,186.5 1341.8,269.1 			"/>
		</g>
	</g>
	<rect x="920.1" y="338.4" class="st11" width="13.9" height="10.4"/>
	<rect x="851.8" y="295.1" class="st11" width="13.9" height="10.4"/>
	<rect x="658.7" y="416.7" class="st11" width="13.9" height="10.4"/>
	<rect x="691.7" y="338.4" class="st11" width="13.9" height="10.4"/>
	<rect x="624" y="295.1" class="st11" width="13.9" height="10.4"/>
	<rect x="995" y="441.9" class="st11" width="13.9" height="10.4"/>
	<polygon class="st11" points="1365.4,453.3 1348.5,452.3 1348.5,441.9 1365.4,441.9 	"/>
	<polygon class="st11" points="1062.9,299.3 1052,302.3 1052,291.9 1062.9,288.9 	"/>
	<polygon class="st11" points="1208.6,389.8 1197.6,390.8 1197.6,380.4 1208.6,379.4 	"/>
	<polygon class="st11" points="1322.9,322.2 1312,324.2 1312,313.8 1322.9,311.8 	"/>
	<polygon class="st11" points="1470.7,195.1 1459.8,200.1 1459.8,189.8 1470.7,184.8 	"/>
	<rect x="881.9" y="417.1" class="st11" width="20.4" height="10.4"/>
	<rect x="536.9" y="432.2" class="st11" width="20.4" height="10.4"/>
	<rect x="414.9" y="432.2" class="st11" width="20.4" height="10.4"/>
	<polygon class="st11" points="266.3,457.5 245.9,458.5 245.9,448.1 266.3,447.1 	"/>
	<polygon class="st11" points="163.2,458.5 142.8,459.5 142.8,449.1 163.2,448.1 	"/>
	<path class="st8" d="M297.6,176.4l-2-0.3c-2.4-0.4-4-2.7-3.6-5.1l0.9-5.1c0.4-2.4,2.7-4,5.1-3.6l2,0.3c2.4,0.4,4,2.7,3.6,5.1
		l-0.9,5.1C302.3,175.2,300,176.8,297.6,176.4z"/>
	<path class="st11" d="M304.2,178.6h-2c-2.5,0-4.4-2-4.4-4.4V169c0-2.5,2-4.4,4.4-4.4h2c2.5,0,4.4,2,4.4,4.4v5.2
		C308.6,176.6,306.6,178.6,304.2,178.6z"/>
	<path class="st8" d="M1254.3,178.5l2-0.3c2.4-0.4,4-2.7,3.6-5.1l-0.9-5.1c-0.4-2.4-2.7-4-5.1-3.6l-2,0.3c-2.4,0.4-4,2.7-3.6,5.1
		l0.9,5.1C1249.5,177.3,1251.8,178.9,1254.3,178.5z"/>
	<path class="st11" d="M1247.6,180.7h2c2.5,0,4.4-2,4.4-4.4v-5.2c0-2.5-2-4.4-4.4-4.4h-2c-2.5,0-4.4,2-4.4,4.4v5.2
		C1243.2,178.7,1245.2,180.7,1247.6,180.7z"/>
	<path class="st8" d="M903.4,227.7h1.2c1.5,0,2.7-1.2,2.7-2.7V222c0-1.5-1.2-2.7-2.7-2.7h-1.2c-1.5,0-2.7,1.2-2.7,2.7v3.1
		C900.7,226.5,901.9,227.7,903.4,227.7z"/>
	<path class="st11" d="M901.4,229h1.2c1.5,0,2.7-1.2,2.7-2.7v-3.1c0-1.5-1.2-2.7-2.7-2.7h-1.2c-1.5,0-2.7,1.2-2.7,2.7v3.1
		C898.7,227.8,899.9,229,901.4,229z"/>
</g>
<g id="Layer_1">
	
		<radialGradient id="SVGID_00000121959879346871241870000002228562278223282100_" cx="773.9089" cy="366.8867" r="230.6023" gradientUnits="userSpaceOnUse">
		<stop  offset="0" style="stop-color:#FFFFFF"/>
		<stop  offset="0.9385" style="stop-color:#000000"/>
	</radialGradient>
	
		<rect x="0" y="0" style="opacity:0.42;fill:url(#SVGID_00000121959879346871241870000002228562278223282100_);" width="1570.1" height="730"/>
</g>
<g id="Layer_11">
	<path class="st11" d="M1460.5,0v598.5H977.4V297.9c0-118.2-90.6-214-202.4-214c-111.8,0-202.4,95.8-202.4,214v300.6H89.5V0H1460.5z
		"/>
	<path class="st37" d="M1570.1,0H0v598.5h561V297.9c0-118.2,95.8-214,214-214s214,95.8,214,214v300.6h581V559V0z"/>
	<path class="st19" d="M280.5,54.8c-136.3,0-247.2,236.3-250.3,530.5l500.7,0C527.6,291.2,416.8,54.8,280.5,54.8z"/>
	<path class="st19" d="M1281.1,54.8c-136.3,0-247.2,236.3-250.3,530.5l500.7,0C1528.2,291.2,1417.4,54.8,1281.1,54.8z"/>
	<rect x="0" y="585.4" class="st38" width="561" height="13.1"/>
	<rect x="561" y="585.4" class="st39" width="11.7" height="13.1"/>
	<rect x="989.1" y="585.4" class="st38" width="581" height="13.1"/>
	
		<rect x="977.4" y="585.4" transform="matrix(-1 -1.224647e-16 1.224647e-16 -1 1966.4559 1183.9664)" class="st39" width="11.7" height="13.1"/>
</g>
<g id="Layer_12">
	<g>
		<rect x="1074.7" y="0" class="st40" width="4.3" height="388.5"/>
	</g>
	<g>
		<rect x="1144.8" y="0" class="st40" width="4.3" height="388.5"/>
	</g>
	<g>
		<rect x="351.3" y="0" class="st40" width="4.3" height="388.5"/>
	</g>
	<g>
		<rect x="443.3" y="0" class="st40" width="4.3" height="388.5"/>
	</g>
	<g>
		<rect x="121.1" y="0" class="st40" width="4.3" height="388.5"/>
	</g>
	<g>
		<rect x="243.2" y="0" class="st40" width="4.3" height="388.5"/>
	</g>
	<g>
		<rect x="1239.8" y="0" class="st40" width="4.3" height="395.5"/>
	</g>
	<g>
		<rect x="1330.5" y="0" class="st40" width="3" height="188.2"/>
	</g>
	<g>
		<rect x="1390.6" y="0" class="st40" width="3" height="188.2"/>
	</g>
	<g>
		<rect x="1479.9" y="0" class="st40" width="4.3" height="395.5"/>
	</g>
	<rect x="1069.4" y="168.5" class="st8" width="98" height="134.2"/>
	<rect x="1065.8" y="357.3" class="st8" width="112.7" height="162.5"/>
	
		<rect x="1298.3" y="311" transform="matrix(-1.836970e-16 1 -1 -1.836970e-16 1820.9729 -916.2305)" class="st8" width="140.7" height="282.7"/>
	<rect x="1379.1" y="162.1" class="st8" width="132" height="190.3"/>
	<rect x="1225.5" y="163.6" class="st8" width="132" height="190.3"/>
	<rect x="328.8" y="194.8" class="st8" width="148.3" height="301.4"/>
	
		<rect x="120.9" y="327.4" transform="matrix(6.123234e-17 -1 1 6.123234e-17 -237.0732 617.0564)" class="st8" width="138.2" height="199.3"/>
	
		<rect x="120.1" y="164.5" transform="matrix(-1.836970e-16 1 -1 -1.836970e-16 455.7115 75.3792)" class="st8" width="140.1" height="202"/>
	<g>
		<rect x="1062.8" y="163.1" class="st8" width="98" height="134.2"/>
		<rect x="1074.3" y="176.1" class="st11" width="75.1" height="108.2"/>
		<rect x="1087.8" y="190.5" class="st10" width="48" height="81.4"/>
	</g>
	<g>
		<rect x="1059.3" y="351.9" class="st9" width="112.7" height="162.5"/>
		<rect x="1066.7" y="359.1" class="st8" width="97.9" height="148"/>
		<rect x="1079" y="371" class="st11" width="73.4" height="126.7"/>
		<rect x="1079" y="371" class="st10" width="73.4" height="126.7"/>
	</g>
	<g>
		<g>
			
				<rect x="1291.8" y="305.6" transform="matrix(-1.836970e-16 1 -1 -1.836970e-16 1809.0341 -915.1573)" class="st8" width="140.7" height="282.7"/>
			
				<rect x="1304.8" y="319.3" transform="matrix(-1.836970e-16 1 -1 -1.836970e-16 1809.0341 -915.1573)" class="st10" width="114.7" height="255.3"/>
			
				<rect x="1320.7" y="334.3" transform="matrix(-1.836970e-16 1 -1 -1.836970e-16 1807.5341 -913.6573)" class="st11" width="79.8" height="225.3"/>
		</g>
		<g>
			<rect x="1372.5" y="156.7" class="st8" width="132" height="190.3"/>
			<rect x="1381.2" y="165.2" class="st10" width="114.7" height="173.3"/>
			<rect x="1395.5" y="179.1" class="st11" width="86" height="148.4"/>
			<rect x="1395.5" y="179.1" class="st11" width="86" height="148.4"/>
			<rect x="1406" y="191.1" class="st8" width="65" height="121.7"/>
		</g>
		<g>
			<rect x="1219" y="158.2" class="st9" width="132" height="190.3"/>
			<rect x="1227.7" y="166.7" class="st8" width="114.7" height="173.3"/>
			<rect x="1242" y="180.6" class="st11" width="86" height="148.4"/>
			<rect x="1231.3" y="169.8" class="st9" width="107" height="167.4"/>
			<rect x="1239.8" y="180.9" class="st11" width="90" height="145.1"/>
			<rect x="1254" y="195.4" class="st8" width="62" height="116.1"/>
			<ellipse class="st10" cx="1284.8" cy="251.8" rx="21.7" ry="45"/>
		</g>
	</g>
	<g>
		<g>
			<rect x="323.6" y="188.2" class="st9" width="148.3" height="301.4"/>
			<rect x="339.7" y="206.6" class="st11" width="115.9" height="264.8"/>
			<rect x="358.8" y="226.9" class="st8" width="77.7" height="226.8"/>
		</g>
		<g>
			
				<rect x="115.6" y="320.9" transform="matrix(6.123234e-17 -1 1 6.123234e-17 -235.805 605.2828)" class="st10" width="138.2" height="199.3"/>
			
				<rect x="124.7" y="329.8" transform="matrix(6.123234e-17 -1 1 6.123234e-17 -235.805 605.2827)" class="st8" width="120.1" height="181.5"/>
			
				<rect x="128.9" y="333.1" transform="matrix(6.123234e-17 -1 1 6.123234e-17 -235.8051 605.6318)" class="st10" width="112.1" height="175.3"/>
			
				<rect x="137.8" y="344.7" transform="matrix(6.123234e-17 -1 1 6.123234e-17 -235.805 605.6318)" class="st11" width="94.3" height="152"/>
			<path class="st8" d="M108.6,373.6h92.9v29.6c0,9.7-7.3,17.5-16.2,17.5l0,0c-9,0-16.2,7.8-16.2,17.5v29.6h-60.4V373.6z"/>
		</g>
		<g>
			
				<rect x="114.9" y="158" transform="matrix(-1.836970e-16 1 -1 -1.836970e-16 443.938 74.111)" class="st8" width="140.1" height="202"/>
			
				<rect x="127.6" y="172.4" transform="matrix(-1.836970e-16 1 -1 -1.836970e-16 443.9379 74.111)" class="st10" width="114.7" height="173.3"/>
			
				<rect x="140.4" y="184.8" transform="matrix(-1.836970e-16 1 -1 -1.836970e-16 442.4378 75.611)" class="st11" width="86" height="148.4"/>
			
				<rect x="140.4" y="184.8" transform="matrix(-1.836970e-16 1 -1 -1.836970e-16 442.4378 75.611)" class="st11" width="86" height="148.4"/>
			
				<rect x="152.2" y="198.2" transform="matrix(-1.836970e-16 1 -1 -1.836970e-16 443.7712 74.2776)" class="st8" width="65" height="121.7"/>
			<g>
				<path class="st8" d="M265.4,311.5h-164v-105h164V311.5z M103.4,309.5h160v-101h-160V309.5z"/>
			</g>
			<path class="st10" d="M141,279.7c0-24.2,19.6-43.8,43.8-43.8c24.2,0,43.8,19.6,43.8,43.8H141z"/>
		</g>
	</g>
	<g class="st41">
		<g>
			<rect x="1062.8" y="670.7" class="st8" width="98" height="37.5"/>
			<rect x="1074.3" y="674.3" class="st11" width="75.1" height="30.2"/>
			<rect x="1087.8" y="677.8" class="st10" width="48" height="22.7"/>
		</g>
		<g>
			<rect x="1059.3" y="610.1" class="st9" width="112.7" height="45.4"/>
			<rect x="1066.7" y="612.2" class="st8" width="97.9" height="41.3"/>
			<rect x="1079" y="614.8" class="st11" width="73.4" height="35.4"/>
			<rect x="1079" y="614.8" class="st10" width="73.4" height="35.4"/>
		</g>
		<g>
			<g>
				
					<rect x="1342.5" y="487.6" transform="matrix(6.123234e-17 -1 1 6.123234e-17 733.14 1991.0514)" class="st8" width="39.3" height="282.7"/>
				
					<rect x="1346.1" y="501.3" transform="matrix(6.123234e-17 -1 1 6.123234e-17 733.14 1991.0514)" class="st10" width="32" height="255.3"/>
				
					<rect x="1349.5" y="516.3" transform="matrix(6.123234e-17 -1 1 6.123234e-17 731.64 1989.5514)" class="st11" width="22.3" height="225.3"/>
			</g>
			<g>
				<rect x="1372.5" y="656.9" class="st8" width="132" height="53.1"/>
				<rect x="1381.2" y="659.2" class="st10" width="114.7" height="48.4"/>
				<rect x="1395.5" y="662.3" class="st11" width="86" height="41.4"/>
				<rect x="1395.5" y="662.3" class="st11" width="86" height="41.4"/>
				<rect x="1406" y="666.4" class="st8" width="65" height="34"/>
			</g>
			<g>
				<rect x="1219" y="656.4" class="st9" width="132" height="53.1"/>
				<rect x="1227.7" y="658.8" class="st8" width="114.7" height="48.4"/>
				<rect x="1242" y="661.9" class="st11" width="86" height="41.4"/>
				<rect x="1231.3" y="659.6" class="st9" width="107" height="46.7"/>
				<rect x="1239.8" y="662.7" class="st11" width="90" height="40.5"/>
				<rect x="1254" y="666.7" class="st8" width="62" height="32.4"/>
				<ellipse class="st10" cx="1284.8" cy="683.4" rx="21.7" ry="12.6"/>
			</g>
		</g>
		<g>
			<g>
				<rect x="323.6" y="617" class="st9" width="148.3" height="84.1"/>
				<rect x="339.7" y="622.1" class="st11" width="115.9" height="73.9"/>
				<rect x="358.8" y="627.1" class="st8" width="77.7" height="63.3"/>
			</g>
			<g>
				
					<rect x="165.4" y="536.7" transform="matrix(-1.836970e-16 1 -1 -1.836970e-16 821.061 451.5832)" class="st10" width="38.6" height="199.3"/>
				
					<rect x="168" y="545.6" transform="matrix(-1.836970e-16 1 -1 -1.836970e-16 821.061 451.5833)" class="st8" width="33.5" height="181.5"/>
				
					<rect x="169.3" y="548.6" transform="matrix(-1.836970e-16 1 -1 -1.836970e-16 821.1868 451.36)" class="st10" width="31.3" height="175.3"/>
				
					<rect x="171.8" y="560.3" transform="matrix(-1.836970e-16 1 -1 -1.836970e-16 821.1868 451.36)" class="st11" width="26.3" height="152"/>
				<path class="st8" d="M108.6,649.4h92.9v-8.3c0-2.7-7.3-4.9-16.2-4.9l0,0c-9,0-16.2-2.2-16.2-4.9v-8.3h-60.4V649.4z"/>
			</g>
			<g>
				
					<rect x="165.4" y="580.4" transform="matrix(6.123234e-17 -1 1 6.123234e-17 -496.4868 866.3138)" class="st8" width="39.1" height="202"/>
				
					<rect x="168.9" y="594.8" transform="matrix(6.123234e-17 -1 1 6.123234e-17 -496.4868 866.3137)" class="st10" width="32" height="173.3"/>
				
					<rect x="171.4" y="607.2" transform="matrix(6.123234e-17 -1 1 6.123234e-17 -497.9868 864.8137)" class="st11" width="24" height="148.4"/>
				
					<rect x="171.4" y="607.2" transform="matrix(6.123234e-17 -1 1 6.123234e-17 -497.9868 864.8137)" class="st11" width="24" height="148.4"/>
				
					<rect x="175.7" y="620.5" transform="matrix(6.123234e-17 -1 1 6.123234e-17 -496.6535 866.1471)" class="st8" width="18.1" height="121.7"/>
				<g>
					<path class="st8" d="M264.9,696.3H101.9v-29.8h163.1V696.3z M102.9,695.2h160.9v-27.7H102.9V695.2z"/>
				</g>
				<path class="st10" d="M141,675.6c0,6.7,19.6,12.2,43.8,12.2c24.2,0,43.8-5.5,43.8-12.2H141z"/>
			</g>
		</g>
	</g>
	<g>
		<g>
			<rect x="151" y="0" class="st38" width="5.2" height="70.5"/>
		</g>
		
			<rect x="143.3" y="51.6" transform="matrix(0.7071 -0.7071 0.7071 0.7071 -10.0192 131.3906)" class="st38" width="20.6" height="52.3"/>
		<g>
			<rect x="261.1" y="0" class="st38" width="5.2" height="70.5"/>
		</g>
		
			<rect x="253.4" y="51.6" transform="matrix(0.7071 -0.7071 0.7071 0.7071 22.2187 209.2193)" class="st38" width="20.6" height="52.3"/>
		<g>
			<rect x="361.1" y="0" class="st38" width="5.2" height="70.5"/>
		</g>
		
			<rect x="353.4" y="51.6" transform="matrix(0.7071 -0.7071 0.7071 0.7071 51.5259 279.9727)" class="st38" width="20.6" height="52.3"/>
	</g>
	<g>
		<g>
			
				<rect x="1400.6" y="0" transform="matrix(-1 -1.224647e-16 1.224647e-16 -1 2806.4873 70.4644)" class="st38" width="5.2" height="70.5"/>
		</g>
		
			<rect x="1393" y="51.6" transform="matrix(-0.7071 -0.7071 0.7071 -0.7071 2340.4778 1125.0411)" class="st38" width="20.6" height="52.3"/>
		<g>
			
				<rect x="1290.6" y="0" transform="matrix(-1 -1.224647e-16 1.224647e-16 -1 2586.3552 70.4644)" class="st38" width="5.2" height="70.5"/>
		</g>
		
			<rect x="1282.9" y="51.6" transform="matrix(-0.7071 -0.7071 0.7071 -0.7071 2152.5835 1047.2125)" class="st38" width="20.6" height="52.3"/>
		<g>
			
				<rect x="1190.5" y="0" transform="matrix(-1 -1.224647e-16 1.224647e-16 -1 2386.2354 70.4644)" class="st38" width="5.2" height="70.5"/>
		</g>
		
			<rect x="1182.8" y="51.6" transform="matrix(-0.7071 -0.7071 0.7071 -0.7071 1981.7738 976.4565)" class="st38" width="20.6" height="52.3"/>
	</g>
	<rect x="170.6" y="503" class="st11" width="36" height="18.3"/>
	<rect x="384.9" y="501.3" class="st11" width="36" height="18.3"/>
	<rect x="27.8" y="241.3" class="st11" width="36" height="18.3"/>
	<rect x="1009.3" y="455.9" class="st11" width="36" height="18.3"/>
	<rect x="1012.7" y="219.9" class="st11" width="29.3" height="18.3"/>
	<rect x="1354.5" y="532.5" class="st11" width="36" height="18.3"/>
	<line class="st38" x1="602.9" y1="597.6" x2="625.9" y2="597.6"/>
	<line class="st38" x1="625.9" y1="485" x2="602.9" y2="485"/>
	<line class="st38" x1="625.9" y1="597.6" x2="648.8" y2="597.6"/>
	<line class="st38" x1="648.8" y1="485" x2="625.9" y2="485"/>
	<g>
		<g>
			<rect x="580.5" y="485" class="st11" width="66.8" height="113.3"/>
			<rect x="580.5" y="485" class="st37" width="56.3" height="113.3"/>
		</g>
		<g>
			<path class="st10" d="M625.5,455.8c0,11-3.7,18.3-9.3,22.1v7.1h-20.3v-7.1c-5.6-3.8-9.3-11.1-9.3-22.1c0-11.5,4-23.9,10-30.7
				l-3.1-27.6h25.1l-3.1,27.6C621.4,431.9,625.5,444.4,625.5,455.8z"/>
			<path class="st11" d="M618.1,455.8c0,11-3.7,18.3-9.3,22.1v7.1h-12.9v-7.1c-5.6-3.8-9.3-11.1-9.3-22.1c0-11.5,4-23.9,10-30.7
				l-3.1-27.6h17.7l-3.1,27.6C614.1,431.9,618.1,444.4,618.1,455.8z"/>
			<path class="st8" d="M634.5,436H630v15.2c-2.1,4.6-3.6,15-3.6,22.3c0,5.4,0.8,8,2,9.3v2.1h7.5v-2.1c1.2-1.3,2-4,2-9.3
				c0-7.4-1.5-17.7-3.6-22.3V436z"/>
		</g>
		<polygon class="st11" points="631.7,474.9 613.9,474.9 618,485 635.8,485 		"/>
	</g>
	<g class="st41">
		<g>
			<rect x="580.5" y="598.3" class="st11" width="66.8" height="70.4"/>
			<rect x="580.5" y="598.3" class="st37" width="56.3" height="70.4"/>
		</g>
		<g>
			<path class="st9" d="M625.5,686.7c0-6.8-3.7-11.4-9.3-13.7v-4.4h-20.3v4.4c-5.6,2.3-9.3,6.9-9.3,13.7c0,7.1,4,14.9,10,19.1
				l-3.1,17.2h25.1l-3.1-17.2C621.4,701.6,625.5,693.8,625.5,686.7z"/>
			<path class="st32" d="M618.1,686.7c0-6.8-3.7-11.4-9.3-13.7v-4.4h-12.9v4.4c-5.6,2.3-9.3,6.9-9.3,13.7c0,7.1,4,14.9,10,19.1
				l-3.1,17.2h17.7l-3.1-17.2C614.1,701.6,618.1,693.8,618.1,686.7z"/>
			<path class="st8" d="M634.5,699H630v-9.5c-2.1-2.9-3.6-9.3-3.6-13.9c0-3.3,0.8-5,2-5.8v-1.3h7.5v1.3c1.2,0.8,2,2.5,2,5.8
				c0,4.6-1.5,11-3.6,13.9V699z"/>
		</g>
		<polygon class="st11" points="631.7,674.9 613.9,674.9 618,668.6 635.8,668.6 		"/>
	</g>
	<g>
		<rect x="1018.2" y="343.4" class="st11" width="7.9" height="10"/>
		<path class="st42" d="M1032.6,362.1v47.4h-20.9v-47.4c0-4.7,3.1-8.6,7.3-10c1-0.3,2-0.5,3.1-0.5c2.9,0,5.5,1.2,7.4,3.1
			C1031.4,356.6,1032.6,359.2,1032.6,362.1z"/>
		<path class="st43" d="M1026.3,362.1v47.4h-14.6v-47.4c0-4.7,3.1-8.6,7.3-10c1.6,0.5,3.1,1.4,4.2,2.6
			C1025.1,356.6,1026.3,359.2,1026.3,362.1z"/>
		<rect x="1019" y="376.6" class="st11" width="13.6" height="17"/>
		<path class="st38" d="M1020,365.8h-10.5v-15c0-2.9,2.3-5.2,5.2-5.2l0,0c2.9,0,5.2,2.3,5.2,5.2V365.8z"/>
		<rect x="1008.6" y="396.6" class="st44" width="27.6" height="6.6"/>
		<rect x="1008.3" y="368.4" class="st44" width="27.6" height="6.6"/>
	</g>
	<path class="st8" d="M573.6,68.9h-9c-1,0-1.8-0.8-1.8-1.8V48.2c0-1,0.8-1.8,1.8-1.8h9c1,0,1.8,0.8,1.8,1.8v18.9
		C575.4,68.1,574.6,68.9,573.6,68.9z"/>
	<path class="st11" d="M577.8,72.1h-9c-1,0-1.8-0.8-1.8-1.8V51.4c0-1,0.8-1.8,1.8-1.8h9c1,0,1.8,0.8,1.8,1.8v18.9
		C579.6,71.3,578.8,72.1,577.8,72.1z"/>
	<path class="st8" d="M986.6,70.5h9c1,0,1.8-0.8,1.8-1.8V49.8c0-1-0.8-1.8-1.8-1.8h-9c-1,0-1.8,0.8-1.8,1.8v18.9
		C984.7,69.7,985.6,70.5,986.6,70.5z"/>
	<path class="st11" d="M982.4,73.7h9c1,0,1.8-0.8,1.8-1.8V53c0-1-0.8-1.8-1.8-1.8h-9c-1,0-1.8,0.8-1.8,1.8v18.9
		C980.6,72.9,981.4,73.7,982.4,73.7z"/>
</g>
<g id="Layer_8">
	
		<radialGradient id="SVGID_00000119088443180436519450000006579554437462483131_" cx="697.908" cy="42.8868" r="997.2487" gradientUnits="userSpaceOnUse">
		<stop  offset="0" style="stop-color:#FFFFFF"/>
		<stop  offset="0.9385" style="stop-color:#000000"/>
	</radialGradient>
	
		<rect x="0" y="0" style="opacity:0.31;fill:url(#SVGID_00000119088443180436519450000006579554437462483131_);" width="1570.1" height="730"/>
</g>
</svg>
